<svg width="20" height="18" viewBox="0 0 20 18" fill="none" xmlns="http://www.w3.org/2000/svg">
<path d="M18.2039 6.51722L18.0939 6.25005C18.2487 6.25005 18.402 6.21957 18.545 6.16033C18.688 6.1011 18.8179 6.01428 18.9274 5.90482C19.0368 5.79537 19.1237 5.66543 19.1829 5.52243C19.2421 5.37942 19.2726 5.22615 19.2726 5.07136C19.2726 4.91658 19.2421 4.76331 19.1829 4.6203C19.1237 4.47729 19.0368 4.34736 18.9274 4.23791C18.8179 4.12845 18.688 4.04163 18.545 3.9824C18.402 3.92316 18.2487 3.89268 18.0939 3.89268H17.1274L16.2473 1.70031C16.0721 1.41092 15.8254 1.17145 15.5309 1.00494C15.2364 0.838428 14.904 0.750464 14.5657 0.749505H6.1263C5.77686 0.753007 5.43453 0.848554 5.13379 1.02652C4.83304 1.20448 4.58452 1.45857 4.41327 1.76318L3.55676 3.89268H2.58237C2.42759 3.89268 2.27431 3.92316 2.13131 3.9824C1.9883 4.04163 1.85837 4.12845 1.74891 4.23791C1.63946 4.34736 1.55264 4.47729 1.49341 4.6203C1.43417 4.76331 1.40368 4.91658 1.40368 5.07136C1.40368 5.22615 1.43417 5.37942 1.49341 5.52243C1.55264 5.66543 1.63946 5.79537 1.74891 5.90482C1.85837 6.01428 1.9883 6.1011 2.13131 6.16033C2.27431 6.21957 2.42759 6.25005 2.58237 6.25005L2.48808 6.51722C2.01812 6.74014 1.62101 7.09176 1.34284 7.53128C1.06467 7.97079 0.916831 8.48018 0.916493 9.00033V12.9293C0.9164 13.3822 1.07278 13.8212 1.35917 14.172C1.64555 14.5228 2.04435 14.7639 2.48808 14.8545V16.0725C2.48808 16.3851 2.61226 16.6849 2.83331 16.9059C3.05435 17.127 3.35416 17.2512 3.66677 17.2512H4.45256C4.76517 17.2512 5.06497 17.127 5.28602 16.9059C5.50707 16.6849 5.63125 16.3851 5.63125 16.0725V14.8938H15.0608V16.0725C15.0608 16.3851 15.1849 16.6849 15.406 16.9059C15.627 17.127 15.9268 17.2512 16.2394 17.2512H17.0252C17.3378 17.2512 17.6377 17.127 17.8587 16.9059C18.0797 16.6849 18.2039 16.3851 18.2039 16.0725V14.8545C18.6477 14.7639 19.0465 14.5228 19.3328 14.172C19.6192 13.8212 19.7756 13.3822 19.7755 12.9293V9.00033C19.7752 8.48018 19.6273 7.97079 19.3492 7.53128C19.071 7.09176 18.6739 6.74014 18.2039 6.51722ZM18.1096 4.67847C18.1833 4.67832 18.2555 4.69887 18.318 4.73777C18.3805 4.77668 18.4308 4.83236 18.4632 4.89849C18.4926 4.95845 18.5062 5.02491 18.5028 5.09159C18.4994 5.15827 18.479 5.22298 18.4436 5.2796C18.4082 5.33622 18.359 5.38289 18.3005 5.4152C18.2421 5.44751 18.1764 5.4644 18.1096 5.46426H17.756L17.4417 4.67847H18.1096ZM4.18539 4.44273L5.11263 2.08535C5.22087 1.91503 5.37076 1.77513 5.54814 1.67888C5.72551 1.58263 5.9245 1.53321 6.1263 1.5353H14.5657C14.7594 1.53436 14.9504 1.58119 15.1218 1.67165C15.2931 1.76211 15.4395 1.89341 15.548 2.05392L17.2295 6.25005H3.46246L4.18539 4.44273ZM2.58237 5.46426C2.47817 5.46426 2.37824 5.42287 2.30455 5.34918C2.23087 5.2755 2.18948 5.17557 2.18948 5.07136C2.18948 4.96716 2.23087 4.86723 2.30455 4.79354C2.37824 4.71986 2.47817 4.67847 2.58237 4.67847H3.27387L2.95955 5.46426H2.58237ZM4.84546 16.0725C4.84546 16.1767 4.80406 16.2766 4.73038 16.3503C4.6567 16.424 4.55676 16.4654 4.45256 16.4654H3.66677C3.56256 16.4654 3.46263 16.424 3.38895 16.3503C3.31526 16.2766 3.27387 16.1767 3.27387 16.0725V14.8938H4.84546V16.0725ZM6.89637 14.108L7.35213 11.7506H13.3556L13.8113 14.108H6.89637ZM17.4181 16.0725C17.4181 16.1767 17.3767 16.2766 17.3031 16.3503C17.2294 16.424 17.1294 16.4654 17.0252 16.4654H16.2394C16.1352 16.4654 16.0353 16.424 15.9616 16.3503C15.8879 16.2766 15.8466 16.1767 15.8466 16.0725V14.8938H17.4181V16.0725ZM18.9897 12.9293C18.9897 13.2419 18.8655 13.5417 18.6445 13.7628C18.4234 13.9838 18.1236 14.108 17.811 14.108H14.5971L14.0549 11.287C14.0384 11.1968 13.9909 11.1152 13.9206 11.0564C13.8503 10.9975 13.7616 10.9651 13.6699 10.9648H7.0221C6.93041 10.9651 6.84173 10.9975 6.77141 11.0564C6.70109 11.1152 6.65357 11.1968 6.63706 11.287L6.09487 14.108H2.88097C2.56837 14.108 2.26856 13.9838 2.04752 13.7628C1.82647 13.5417 1.70229 13.2419 1.70229 12.9293V9.00033C1.70229 8.47932 1.90926 7.97964 2.27767 7.61123C2.64608 7.24282 3.14575 7.03585 3.66677 7.03585H17.0252C17.5463 7.03585 18.0459 7.24282 18.4143 7.61123C18.7828 7.97964 18.9897 8.47932 18.9897 9.00033V12.9293ZM6.02414 7.82164H3.66677C3.35416 7.82164 3.05435 7.94582 2.83331 8.16687C2.61226 8.38792 2.48808 8.68772 2.48808 9.00033V9.78612C2.48808 9.89032 2.52947 9.99026 2.60315 10.0639C2.67684 10.1376 2.77677 10.179 2.88097 10.179H6.02414C6.12835 10.179 6.22828 10.1376 6.30196 10.0639C6.37565 9.99026 6.41704 9.89032 6.41704 9.78612V8.21454C6.41704 8.11033 6.37565 8.0104 6.30196 7.93672C6.22828 7.86303 6.12835 7.82164 6.02414 7.82164ZM5.63125 9.39322H3.27387V9.00033C3.27387 8.89613 3.31526 8.79619 3.38895 8.72251C3.46263 8.64883 3.56256 8.60743 3.66677 8.60743H5.63125V9.39322ZM3.66677 10.9648C3.43364 10.9648 3.20576 11.0339 3.01192 11.1635C2.81809 11.293 2.66701 11.4771 2.5778 11.6924C2.48859 11.9078 2.46525 12.1448 2.51073 12.3734C2.55621 12.6021 2.66847 12.8121 2.83331 12.977C2.99815 13.1418 3.20817 13.2541 3.43682 13.2995C3.66546 13.345 3.90245 13.3217 4.11783 13.2325C4.33321 13.1433 4.51729 12.9922 4.64681 12.7983C4.77633 12.6045 4.84546 12.3766 4.84546 12.1435C4.84546 11.8309 4.72127 11.5311 4.50023 11.31C4.27918 11.089 3.97937 10.9648 3.66677 10.9648ZM3.66677 12.5364C3.58906 12.5364 3.5131 12.5134 3.44849 12.4702C3.38387 12.427 3.33352 12.3656 3.30378 12.2939C3.27404 12.2221 3.26626 12.1431 3.28142 12.0668C3.29658 11.9906 3.334 11.9206 3.38895 11.8657C3.44389 11.8107 3.5139 11.7733 3.59012 11.7582C3.66633 11.743 3.74533 11.7508 3.81712 11.7805C3.88891 11.8102 3.95028 11.8606 3.99345 11.9252C4.03662 11.9898 4.05966 12.0658 4.05966 12.1435C4.05966 12.2477 4.01827 12.3476 3.94459 12.4213C3.8709 12.495 3.77097 12.5364 3.66677 12.5364ZM12.3105 8.60743H9.16732C9.06311 8.60743 8.96318 8.64883 8.8895 8.72251C8.81581 8.79619 8.77442 8.89613 8.77442 9.00033C8.77442 9.10453 8.81581 9.20447 8.8895 9.27815C8.96318 9.35183 9.06311 9.39322 9.16732 9.39322H12.3105C12.4147 9.39322 12.5146 9.35183 12.5883 9.27815C12.662 9.20447 12.7034 9.10453 12.7034 9.00033C12.7034 8.89613 12.662 8.79619 12.5883 8.72251C12.5146 8.64883 12.4147 8.60743 12.3105 8.60743ZM17.0252 7.82164H14.6679C14.5637 7.82164 14.4637 7.86303 14.39 7.93672C14.3164 8.0104 14.275 8.11033 14.275 8.21454V9.78612C14.275 9.89032 14.3164 9.99026 14.39 10.0639C14.4637 10.1376 14.5637 10.179 14.6679 10.179H17.811C17.9152 10.179 18.0152 10.1376 18.0889 10.0639C18.1625 9.99026 18.2039 9.89032 18.2039 9.78612V9.00033C18.2039 8.68772 18.0797 8.38792 17.8587 8.16687C17.6377 7.94582 17.3378 7.82164 17.0252 7.82164ZM17.4181 9.39322H15.0608V8.60743H17.0252C17.1294 8.60743 17.2294 8.64883 17.3031 8.72251C17.3767 8.79619 17.4181 8.89613 17.4181 9.00033V9.39322ZM17.0252 10.9648C16.7921 10.9648 16.5642 11.0339 16.3704 11.1635C16.1766 11.293 16.0255 11.4771 15.9363 11.6924C15.8471 11.9078 15.8237 12.1448 15.8692 12.3734C15.9147 12.6021 16.0269 12.8121 16.1918 12.977C16.3566 13.1418 16.5666 13.2541 16.7953 13.2995C17.0239 13.345 17.2609 13.3217 17.4763 13.2325C17.6917 13.1433 17.8758 12.9922 18.0053 12.7983C18.1348 12.6045 18.2039 12.3766 18.2039 12.1435C18.2039 11.8309 18.0797 11.5311 17.8587 11.31C17.6377 11.089 17.3378 10.9648 17.0252 10.9648ZM17.0252 12.5364C16.9475 12.5364 16.8716 12.5134 16.807 12.4702C16.7423 12.427 16.692 12.3656 16.6623 12.2939C16.6325 12.2221 16.6247 12.1431 16.6399 12.0668C16.6551 11.9906 16.6925 11.9206 16.7474 11.8657C16.8024 11.8107 16.8724 11.7733 16.9486 11.7582C17.0248 11.743 17.1038 11.7508 17.1756 11.7805C17.2474 11.8102 17.3088 11.8606 17.3519 11.9252C17.3951 11.9898 17.4181 12.0658 17.4181 12.1435C17.4181 12.2477 17.3767 12.3476 17.3031 12.4213C17.2294 12.495 17.1294 12.5364 17.0252 12.5364Z" fill="white"/>
<path fill-rule="evenodd" clip-rule="evenodd" d="M16.2473 1.70031L17.1274 3.89268H18.0939C18.2487 3.89268 18.402 3.92316 18.545 3.9824C18.688 4.04163 18.8179 4.12845 18.9274 4.23791C19.0368 4.34736 19.1237 4.47729 19.1829 4.6203C19.2421 4.76331 19.2726 4.91658 19.2726 5.07136C19.2726 5.22615 19.2421 5.37942 19.1829 5.52243C19.1237 5.66543 19.0368 5.79537 18.9274 5.90482C18.8179 6.01428 18.688 6.1011 18.545 6.16033C18.4291 6.20833 18.3065 6.23745 18.1818 6.24677C18.1526 6.24896 18.1233 6.25005 18.0939 6.25005L18.2039 6.51722C18.6739 6.74014 19.071 7.09176 19.3492 7.53128C19.6273 7.97079 19.7752 8.48018 19.7755 9.00033V12.9293C19.7756 13.3822 19.6192 13.8212 19.3328 14.172C19.0465 14.5228 18.6477 14.7639 18.2039 14.8545V16.0725C18.2039 16.3851 18.0797 16.6849 17.8587 16.9059C17.6377 17.127 17.3378 17.2512 17.0252 17.2512H16.2394C15.9268 17.2512 15.627 17.127 15.406 16.9059C15.1849 16.6849 15.0608 16.3851 15.0608 16.0725V14.8938H5.63125V16.0725C5.63125 16.3851 5.50707 16.6849 5.28602 16.9059C5.06497 17.127 4.76517 17.2512 4.45256 17.2512H3.66677C3.35416 17.2512 3.05435 17.127 2.83331 16.9059C2.61226 16.6849 2.48808 16.3851 2.48808 16.0725V14.8545C2.04435 14.7639 1.64555 14.5228 1.35917 14.172C1.07278 13.8212 0.9164 13.3822 0.916493 12.9293V9.00033C0.916831 8.48018 1.06467 7.97079 1.34284 7.53128C1.62101 7.09176 2.01812 6.74014 2.48808 6.51722L2.58237 6.25005C2.55351 6.25005 2.5247 6.24899 2.496 6.24688C2.37078 6.23768 2.24765 6.20852 2.13131 6.16033C1.9883 6.1011 1.85837 6.01428 1.74891 5.90482C1.63946 5.79537 1.55264 5.66543 1.49341 5.52243C1.43417 5.37942 1.40368 5.22615 1.40368 5.07136C1.40368 4.91658 1.43417 4.76331 1.49341 4.6203C1.55264 4.47729 1.63946 4.34736 1.74891 4.23791C1.85837 4.12845 1.9883 4.04163 2.13131 3.9824C2.27431 3.92316 2.42759 3.89268 2.58237 3.89268H3.55676L4.41327 1.76318C4.58452 1.45857 4.83304 1.20448 5.13379 1.02652C5.43453 0.848554 5.77686 0.753007 6.1263 0.749505H14.5657C14.904 0.750464 15.2364 0.838428 15.5309 1.00494C15.8254 1.17145 16.0721 1.41092 16.2473 1.70031ZM3.50101 3.81017L4.34074 1.7224C4.5191 1.40515 4.77854 1.14086 5.09177 0.955508C5.40499 0.770161 5.76154 0.670649 6.12547 0.667L6.1263 0.666992L14.5657 0.666996C14.9182 0.667997 15.2647 0.75964 15.5715 0.933118C15.8783 1.1066 16.1353 1.35608 16.3179 1.65758L16.3214 1.66333L17.1832 3.81017H18.0939C18.2595 3.81017 18.4235 3.84279 18.5766 3.90617C18.7296 3.96955 18.8686 4.06245 18.9857 4.17956C19.1028 4.29668 19.1957 4.43571 19.2591 4.58873C19.3225 4.74174 19.3551 4.90574 19.3551 5.07136C19.3551 5.23699 19.3225 5.40099 19.2591 5.554C19.1957 5.70702 19.1028 5.84605 18.9857 5.96317C18.8686 6.08028 18.7296 6.17318 18.5766 6.23656C18.4609 6.28447 18.3389 6.31481 18.2147 6.32676L18.2682 6.45659C18.7396 6.68678 19.1381 7.04349 19.4189 7.48715C19.7054 7.93985 19.8577 8.46452 19.858 9.00027V12.9293C19.8581 13.4012 19.6952 13.8586 19.3968 14.2242C19.1126 14.5722 18.7223 14.8167 18.2864 14.9207V16.0725C18.2864 16.407 18.1536 16.7277 17.917 16.9643C17.6805 17.2008 17.3597 17.3337 17.0252 17.3337H16.2394C15.905 17.3337 15.5842 17.2008 15.3476 16.9643C15.1111 16.7277 14.9783 16.407 14.9783 16.0725V14.9763H5.71376V16.0725C5.71376 16.407 5.58088 16.7277 5.34436 16.9643C5.10784 17.2008 4.78705 17.3337 4.45256 17.3337H3.66677C3.33228 17.3337 3.01149 17.2008 2.77497 16.9643C2.53845 16.7277 2.40557 16.407 2.40557 16.0725V14.9207C1.96974 14.8167 1.57939 14.5722 1.29525 14.2242C0.99684 13.8586 0.833892 13.4012 0.833984 12.9293C0.833984 12.9293 0.833984 12.9293 0.833984 12.9293V9.00033C0.834333 8.46458 0.986602 7.93985 1.27312 7.48715C1.55348 7.04419 1.95113 6.6879 2.4216 6.45767L2.4676 6.32733C2.34133 6.31579 2.21729 6.28525 2.09973 6.23656C1.94672 6.17318 1.80768 6.08028 1.69057 5.96317C1.57346 5.84605 1.48056 5.70702 1.41718 5.554C1.3538 5.40099 1.32118 5.23699 1.32118 5.07136C1.32118 4.90574 1.3538 4.74174 1.41718 4.58873C1.48056 4.43571 1.57346 4.29668 1.69057 4.17956C1.80768 4.06245 1.94672 3.96955 2.09973 3.90617C2.25275 3.84279 2.41675 3.81017 2.58237 3.81017H3.50101ZM18.1096 4.76098L17.5636 4.76098L17.8119 5.38175H18.1096C18.1624 5.38186 18.2145 5.36852 18.2606 5.34299C18.3068 5.31747 18.3457 5.2806 18.3736 5.23587C18.4016 5.19114 18.4177 5.14002 18.4204 5.08734C18.4231 5.03466 18.4124 4.98216 18.3891 4.93479C18.3636 4.88256 18.3238 4.83856 18.2744 4.80783C18.225 4.77709 18.1678 4.76086 18.1096 4.76098ZM17.756 5.46426L17.4417 4.67847H18.1096C18.1833 4.67832 18.2555 4.69887 18.318 4.73777C18.3805 4.77668 18.4308 4.83236 18.4632 4.89849C18.4926 4.95845 18.5062 5.02491 18.5028 5.09159C18.4994 5.15827 18.479 5.22298 18.4436 5.2796C18.4082 5.33622 18.359 5.38289 18.3005 5.4152C18.2421 5.44751 18.1764 5.4644 18.1096 5.46426H17.756ZM4.262 4.47337L3.58433 6.16755H17.1076L15.4747 2.09296C15.3743 1.94694 15.24 1.82739 15.0832 1.74462C14.9239 1.66049 14.7463 1.61693 14.5661 1.6178L6.12545 1.61781C5.93768 1.61587 5.75253 1.66185 5.58749 1.7514C5.42473 1.83972 5.28683 1.96754 5.18646 2.12306L4.262 4.47337ZM5.11263 2.08535C5.22087 1.91503 5.37076 1.77513 5.54814 1.67888C5.72551 1.58263 5.9245 1.53321 6.1263 1.5353H14.5657C14.7594 1.53436 14.9504 1.58119 15.1218 1.67165C15.2931 1.76211 15.4395 1.89341 15.548 2.05392L17.2295 6.25005H3.46246L4.18539 4.44273L5.11263 2.08535ZM13.6699 10.9648C13.7616 10.9651 13.8503 10.9975 13.9206 11.0564C13.9909 11.1152 14.0384 11.1968 14.0549 11.287L14.5971 14.108H17.811C18.1236 14.108 18.4234 13.9838 18.6445 13.7628C18.8655 13.5417 18.9897 13.2419 18.9897 12.9293V9.00033C18.9897 8.47932 18.7828 7.97964 18.4143 7.61123C18.0459 7.24282 17.5463 7.03585 17.0252 7.03585H3.66677C3.14575 7.03585 2.64608 7.24282 2.27767 7.61123C1.90926 7.97964 1.70229 8.47932 1.70229 9.00033V12.9293C1.70229 13.2419 1.82647 13.5417 2.04752 13.7628C2.26856 13.9838 2.56837 14.108 2.88097 14.108H6.09487L6.63706 11.287C6.65357 11.1968 6.70109 11.1152 6.77141 11.0564C6.84173 10.9975 6.93041 10.9651 7.0221 10.9648H13.6699ZM6.55597 11.2718C6.55594 11.2719 6.55599 11.2717 6.55597 11.2718C6.57599 11.1628 6.63347 11.0642 6.71846 10.9931C6.80355 10.9219 6.91086 10.8827 7.0218 10.8823H13.6699C13.7808 10.8827 13.8885 10.9219 13.9735 10.9931C14.0585 11.0642 14.116 11.1628 14.136 11.2717C14.136 11.2716 14.1361 11.2719 14.136 11.2717L14.6653 14.0255H17.811C18.1018 14.0255 18.3806 13.91 18.5862 13.7044C18.7917 13.4988 18.9072 13.22 18.9072 12.9293V9.00033C18.9072 8.5012 18.7089 8.02251 18.356 7.66957C18.0031 7.31663 17.5244 7.11835 17.0252 7.11835H3.66677C3.16764 7.11835 2.68895 7.31663 2.33601 7.66957C1.98307 8.02251 1.78479 8.5012 1.78479 9.00033V12.9293C1.78479 13.22 1.90028 13.4988 2.10586 13.7044C2.31143 13.91 2.59025 14.0255 2.88097 14.0255H6.02671L6.55597 11.2718ZM2.3629 5.29084C2.4211 5.34905 2.50005 5.38175 2.58237 5.38175H2.90369L3.152 4.76098H2.58237C2.50005 4.76098 2.4211 4.79368 2.3629 4.85189C2.30469 4.9101 2.27198 4.98904 2.27198 5.07136C2.27198 5.15368 2.30469 5.23263 2.3629 5.29084ZM3.27387 4.67847L2.95955 5.46426H2.58237C2.47817 5.46426 2.37824 5.42287 2.30455 5.34918C2.23087 5.2755 2.18948 5.17557 2.18948 5.07136C2.18948 4.96716 2.23087 4.86723 2.30455 4.79354C2.37824 4.71986 2.47817 4.67847 2.58237 4.67847H3.27387ZM4.67204 16.2919C4.73025 16.2337 4.76295 16.1548 4.76295 16.0725V14.9763H3.35638V16.0725C3.35638 16.1548 3.38908 16.2337 3.44729 16.2919C3.5055 16.3501 3.58445 16.3828 3.66677 16.3828H4.45256C4.53488 16.3828 4.61383 16.3501 4.67204 16.2919ZM6.89637 14.108H13.8113L13.3556 11.7506H7.35213L6.89637 14.108ZM6.99636 14.0255H13.7114L13.2875 11.8331H7.42022L6.99636 14.0255ZM17.2447 16.2919C17.3029 16.2337 17.3356 16.1548 17.3356 16.0725V14.9763H15.9291V16.0725C15.9291 16.1548 15.9618 16.2337 16.02 16.2919C16.0782 16.3501 16.1571 16.3828 16.2394 16.3828H17.0252C17.1076 16.3828 17.1865 16.3501 17.2447 16.2919ZM3.66677 7.73913H6.02414C6.15023 7.73913 6.27115 7.78922 6.36031 7.87837C6.44946 7.96753 6.49955 8.08845 6.49955 8.21454V9.78612C6.49955 9.91221 6.44946 10.0331 6.36031 10.1223C6.27115 10.2114 6.15023 10.2615 6.02414 10.2615H2.88097C2.75489 10.2615 2.63397 10.2114 2.54481 10.1223C2.45566 10.0331 2.40557 9.91221 2.40557 9.78612V9.00033C2.40557 8.66584 2.53845 8.34505 2.77497 8.10853C3.01149 7.87201 3.33228 7.73913 3.66677 7.73913ZM3.35638 9.31072H5.54874V8.68994H3.66677C3.58445 8.68994 3.5055 8.72264 3.44729 8.78085C3.38908 8.83906 3.35638 8.91801 3.35638 9.00033V9.31072ZM2.96608 11.0949C3.17349 10.9563 3.41733 10.8823 3.66677 10.8823C4.00126 10.8823 4.32205 11.0152 4.55857 11.2517C4.79509 11.4882 4.92796 11.809 4.92796 12.1435C4.92796 12.3929 4.854 12.6368 4.71541 12.8442C4.57683 13.0516 4.37986 13.2132 4.14941 13.3087C3.91895 13.4042 3.66537 13.4291 3.42072 13.3805C3.17607 13.3318 2.95135 13.2117 2.77497 13.0353C2.59858 12.8589 2.47847 12.6342 2.4298 12.3895C2.38114 12.1449 2.40612 11.8913 2.50157 11.6609C2.59703 11.4304 2.75868 11.2334 2.96608 11.0949ZM3.49432 12.4016C3.54537 12.4357 3.60538 12.4539 3.66677 12.4539C3.74909 12.4539 3.82804 12.4212 3.88624 12.363C3.94445 12.3048 3.97715 12.2258 3.97715 12.1435C3.97715 12.0821 3.95895 12.0221 3.92484 11.9711C3.89074 11.92 3.84226 11.8802 3.78555 11.8567C3.72883 11.8332 3.66642 11.8271 3.60621 11.8391C3.546 11.8511 3.4907 11.8806 3.44729 11.924C3.40388 11.9674 3.37432 12.0227 3.36234 12.0829C3.35037 12.1432 3.35651 12.2056 3.38001 12.2623C3.4035 12.319 3.44328 12.3675 3.49432 12.4016ZM9.16732 8.52492H12.3105C12.4366 8.52492 12.5575 8.57501 12.6466 8.66417C12.7358 8.75332 12.7859 8.87424 12.7859 9.00033C12.7859 9.12641 12.7358 9.24733 12.6466 9.33649C12.5575 9.42565 12.4366 9.47573 12.3105 9.47573H9.16732C9.04123 9.47573 8.92031 9.42565 8.83115 9.33649C8.742 9.24733 8.69191 9.12641 8.69191 9.00033C8.69191 8.87424 8.742 8.75332 8.83115 8.66417C8.92031 8.57501 9.04123 8.52492 9.16732 8.52492ZM14.6679 7.73913H17.0252C17.3597 7.73913 17.6805 7.87201 17.917 8.10853C18.1536 8.34505 18.2864 8.66584 18.2864 9.00033V9.78612C18.2864 9.91221 18.2364 10.0331 18.1472 10.1223C18.058 10.2114 17.9371 10.2615 17.811 10.2615H14.6679C14.5418 10.2615 14.4209 10.2114 14.3317 10.1223C14.2425 10.0331 14.1925 9.91221 14.1925 9.78612V8.21454C14.1925 8.08845 14.2425 7.96753 14.3317 7.87837C14.4209 7.78922 14.5418 7.73913 14.6679 7.73913ZM15.1433 9.31072H17.3356V9.00033C17.3356 8.91801 17.3029 8.83906 17.2447 8.78085C17.1865 8.72264 17.1076 8.68994 17.0252 8.68994H15.1433V9.31072ZM16.3246 11.0949C16.532 10.9563 16.7758 10.8823 17.0252 10.8823C17.3597 10.8823 17.6805 11.0152 17.917 11.2517C18.1536 11.4882 18.2864 11.809 18.2864 12.1435C18.2864 12.3929 18.2125 12.6368 18.0739 12.8442C17.9353 13.0516 17.7383 13.2132 17.5079 13.3087C17.2774 13.4042 17.0238 13.4291 16.7792 13.3805C16.5345 13.3318 16.3098 13.2117 16.1334 13.0353C15.9571 12.8589 15.8369 12.6342 15.7883 12.3895C15.7396 12.1449 15.7646 11.8913 15.86 11.6609C15.9555 11.4304 16.1172 11.2334 16.3246 11.0949ZM16.8528 12.4016C16.9038 12.4357 16.9639 12.4539 17.0252 12.4539C17.1076 12.4539 17.1865 12.4212 17.2447 12.363C17.3029 12.3048 17.3356 12.2258 17.3356 12.1435C17.3356 12.0821 17.3174 12.0221 17.2833 11.9711C17.2492 11.92 17.2007 11.8802 17.144 11.8567C17.0873 11.8332 17.0249 11.8271 16.9647 11.8391C16.9045 11.8511 16.8492 11.8806 16.8058 11.924C16.7624 11.9674 16.7328 12.0227 16.7208 12.0829C16.7088 12.1432 16.715 12.2056 16.7385 12.2623C16.762 12.319 16.8018 12.3675 16.8528 12.4016ZM4.73038 16.3503C4.80406 16.2766 4.84546 16.1767 4.84546 16.0725V14.8938H3.27387V16.0725C3.27387 16.1767 3.31526 16.2766 3.38895 16.3503C3.46263 16.424 3.56256 16.4654 3.66677 16.4654H4.45256C4.55676 16.4654 4.6567 16.424 4.73038 16.3503ZM17.3031 16.3503C17.3767 16.2766 17.4181 16.1767 17.4181 16.0725V14.8938H15.8466V16.0725C15.8466 16.1767 15.8879 16.2766 15.9616 16.3503C16.0353 16.424 16.1352 16.4654 16.2394 16.4654H17.0252C17.1294 16.4654 17.2294 16.424 17.3031 16.3503ZM3.66677 7.82164H6.02414C6.12835 7.82164 6.22828 7.86303 6.30196 7.93672C6.37565 8.0104 6.41704 8.11033 6.41704 8.21454V9.78612C6.41704 9.89032 6.37565 9.99026 6.30196 10.0639C6.22828 10.1376 6.12835 10.179 6.02414 10.179H2.88097C2.77677 10.179 2.67684 10.1376 2.60315 10.0639C2.52947 9.99026 2.48808 9.89032 2.48808 9.78612V9.00033C2.48808 8.68772 2.61226 8.38792 2.83331 8.16687C3.05435 7.94582 3.35416 7.82164 3.66677 7.82164ZM5.63125 9.39322V8.60743H3.66677C3.56256 8.60743 3.46263 8.64883 3.38895 8.72251C3.31526 8.79619 3.27387 8.89613 3.27387 9.00033V9.39322H5.63125ZM3.01192 11.1635C3.20576 11.0339 3.43364 10.9648 3.66677 10.9648C3.97937 10.9648 4.27918 11.089 4.50023 11.31C4.72127 11.5311 4.84546 11.8309 4.84546 12.1435C4.84546 12.3766 4.77633 12.6045 4.64681 12.7983C4.51729 12.9922 4.33321 13.1433 4.11783 13.2325C3.90245 13.3217 3.66546 13.345 3.43682 13.2995C3.20817 13.2541 2.99815 13.1418 2.83331 12.977C2.66847 12.8121 2.55621 12.6021 2.51073 12.3734C2.46525 12.1448 2.48859 11.9078 2.5778 11.6924C2.66701 11.4771 2.81809 11.293 3.01192 11.1635ZM3.44849 12.4702C3.5131 12.5134 3.58906 12.5364 3.66677 12.5364C3.77097 12.5364 3.8709 12.495 3.94459 12.4213C4.01827 12.3476 4.05966 12.2477 4.05966 12.1435C4.05966 12.0658 4.03662 11.9898 3.99345 11.9252C3.95028 11.8606 3.88891 11.8102 3.81712 11.7805C3.74533 11.7508 3.66633 11.743 3.59012 11.7582C3.5139 11.7733 3.44389 11.8107 3.38895 11.8657C3.334 11.9206 3.29658 11.9906 3.28142 12.0668C3.26626 12.1431 3.27404 12.2221 3.30378 12.2939C3.33352 12.3656 3.38387 12.427 3.44849 12.4702ZM9.16732 8.60743H12.3105C12.4147 8.60743 12.5146 8.64883 12.5883 8.72251C12.662 8.79619 12.7034 8.89613 12.7034 9.00033C12.7034 9.10453 12.662 9.20447 12.5883 9.27815C12.5146 9.35183 12.4147 9.39322 12.3105 9.39322H9.16732C9.06311 9.39322 8.96318 9.35183 8.8895 9.27815C8.81581 9.20447 8.77442 9.10453 8.77442 9.00033C8.77442 8.89613 8.81581 8.79619 8.8895 8.72251C8.96318 8.64883 9.06311 8.60743 9.16732 8.60743ZM14.6679 7.82164H17.0252C17.3378 7.82164 17.6377 7.94582 17.8587 8.16687C18.0797 8.38792 18.2039 8.68772 18.2039 9.00033V9.78612C18.2039 9.89032 18.1625 9.99026 18.0889 10.0639C18.0152 10.1376 17.9152 10.179 17.811 10.179H14.6679C14.5637 10.179 14.4637 10.1376 14.39 10.0639C14.3164 9.99026 14.275 9.89032 14.275 9.78612V8.21454C14.275 8.11033 14.3164 8.0104 14.39 7.93672C14.4637 7.86303 14.5637 7.82164 14.6679 7.82164ZM17.4181 9.39322V9.00033C17.4181 8.89613 17.3767 8.79619 17.3031 8.72251C17.2294 8.64883 17.1294 8.60743 17.0252 8.60743H15.0608V9.39322H17.4181ZM16.3704 11.1635C16.5642 11.0339 16.7921 10.9648 17.0252 10.9648C17.3378 10.9648 17.6377 11.089 17.8587 11.31C18.0797 11.5311 18.2039 11.8309 18.2039 12.1435C18.2039 12.3766 18.1348 12.6045 18.0053 12.7983C17.8758 12.9922 17.6917 13.1433 17.4763 13.2325C17.2609 13.3217 17.0239 13.345 16.7953 13.2995C16.5666 13.2541 16.3566 13.1418 16.1918 12.977C16.0269 12.8121 15.9147 12.6021 15.8692 12.3734C15.8237 12.1448 15.8471 11.9078 15.9363 11.6924C16.0255 11.4771 16.1766 11.293 16.3704 11.1635ZM16.807 12.4702C16.8716 12.5134 16.9475 12.5364 17.0252 12.5364C17.1294 12.5364 17.2294 12.495 17.3031 12.4213C17.3767 12.3476 17.4181 12.2477 17.4181 12.1435C17.4181 12.0658 17.3951 11.9898 17.3519 11.9252C17.3088 11.8606 17.2474 11.8102 17.1756 11.7805C17.1038 11.7508 17.0248 11.743 16.9486 11.7582C16.8724 11.7733 16.8024 11.8107 16.7474 11.8657C16.6925 11.9206 16.6551 11.9906 16.6399 12.0668C16.6247 12.1431 16.6325 12.2221 16.6623 12.2939C16.692 12.3656 16.7423 12.427 16.807 12.4702Z" fill="white"/>
</svg>
