<svg width="32" height="32" viewBox="0 0 32 32" fill="none" xmlns="http://www.w3.org/2000/svg">
<path d="M25.4926 19.9209L25.9192 20.7876C26.1326 21.2142 26.6792 21.6142 27.1326 21.6942L27.7059 21.7876C29.4526 22.0809 29.8526 23.3609 28.6126 24.6142L28.0792 25.1476C27.7192 25.5076 27.5326 26.2009 27.6392 26.7076L27.7059 27.0276C28.1859 29.1342 27.0659 29.9476 25.2392 28.8409L24.8526 28.6009C24.3859 28.3209 23.6126 28.3209 23.1459 28.6009L22.7592 28.8409C20.9192 29.9476 19.8126 29.1342 20.2926 27.0276L20.3592 26.7076C20.4659 26.2142 20.2792 25.5076 19.9192 25.1476L19.3859 24.6142C18.1459 23.3476 18.5459 22.0809 20.2926 21.7876L20.8659 21.6942C21.3326 21.6142 21.8659 21.2142 22.0792 20.7876L22.5059 19.9209C23.3326 18.2542 24.6659 18.2542 25.4926 19.9209Z" fill="#A1A1A1"/>
<path d="M21.586 2.66699H10.4127C5.55935 2.66699 2.66602 5.56033 2.66602 10.4137V21.587C2.66602 26.4403 5.55935 29.3337 10.4127 29.3337H17.4527C17.9193 29.3337 18.2527 28.8537 18.1993 28.387C18.146 27.8803 18.1727 27.2803 18.3327 26.587C18.3593 26.4937 18.3327 26.387 18.2527 26.307L17.9593 26.0137C16.826 24.867 16.4127 23.4803 16.8127 22.2137C17.226 20.9603 18.3727 20.0803 19.9594 19.8137L20.3594 19.747L20.7193 19.027C21.4527 17.5337 22.6527 16.667 23.9993 16.667C25.346 16.667 26.546 17.5337 27.2793 19.027L27.4794 19.4403C27.5727 19.6403 27.7593 19.7737 27.9727 19.8137C28.0927 19.8403 28.2127 19.867 28.3327 19.8937C28.7993 20.0137 29.3327 19.6403 29.3327 19.147V10.4137C29.3327 5.56033 26.4394 2.66699 21.586 2.66699ZM21.6793 11.947L18.5993 15.9203C18.2127 16.4137 17.666 16.7337 17.0393 16.8003C16.426 16.8803 15.7993 16.707 15.3193 16.3203L12.8793 14.427C12.786 14.347 12.6793 14.347 12.626 14.3603C12.5727 14.3603 12.4793 14.387 12.3993 14.4937L9.22602 18.6137C9.02602 18.867 8.73268 19.0003 8.42602 19.0003C8.21268 19.0003 7.99935 18.9337 7.81268 18.787C7.37268 18.4537 7.29268 17.827 7.62602 17.387L10.7993 13.267C11.186 12.7737 11.7327 12.4537 12.3594 12.3737C12.986 12.2937 13.5993 12.467 14.0927 12.8537L16.5327 14.7737C16.626 14.8537 16.7193 14.8403 16.786 14.8403C16.8393 14.8403 16.9327 14.8137 17.0127 14.707L20.0927 10.7337C20.426 10.2937 21.0527 10.2137 21.4927 10.5603C21.946 10.8937 22.0127 11.5203 21.6793 11.947Z" fill="#A1A1A1"/>
</svg>
