<svg width="313" height="35" viewBox="0 0 313 35" fill="none" xmlns="http://www.w3.org/2000/svg">
<path d="M19.1199 25.9404L19.4399 26.5904C19.5999 26.9104 20.0099 27.2104 20.3499 27.2704L20.7799 27.3404C22.0899 27.5604 22.3899 28.5204 21.4599 29.4604L21.0599 29.8604C20.7899 30.1304 20.6499 30.6504 20.7299 31.0304L20.7799 31.2704C21.1399 32.8504 20.2999 33.4604 18.9299 32.6304L18.6399 32.4504C18.2899 32.2404 17.7099 32.2404 17.3599 32.4504L17.0699 32.6304C15.6899 33.4604 14.8599 32.8504 15.2199 31.2704L15.2699 31.0304C15.3499 30.6604 15.2099 30.1304 14.9399 29.8604L14.5399 29.4604C13.6099 28.5104 13.9099 27.5604 15.2199 27.3404L15.6499 27.2704C15.9999 27.2104 16.3999 26.9104 16.5599 26.5904L16.8799 25.9404C17.4999 24.6904 18.4999 24.6904 19.1199 25.9404Z" fill="#FACC15"/>
<path d="M16.19 13H7.81C4.17 13 2 15.17 2 18.81V27.19C2 30.83 4.17 33 7.81 33H13.09C13.44 33 13.69 32.64 13.65 32.29C13.61 31.91 13.63 31.46 13.75 30.94C13.77 30.87 13.75 30.79 13.69 30.73L13.47 30.51C12.62 29.65 12.31 28.61 12.61 27.66C12.92 26.72 13.78 26.06 14.97 25.86L15.27 25.81L15.54 25.27C16.09 24.15 16.99 23.5 18 23.5C19.01 23.5 19.91 24.15 20.46 25.27L20.61 25.58C20.68 25.73 20.82 25.83 20.98 25.86C21.07 25.88 21.16 25.9 21.25 25.92C21.6 26.01 22 25.73 22 25.36V18.81C22 15.17 19.83 13 16.19 13ZM16.26 19.96L13.95 22.94C13.66 23.31 13.25 23.55 12.78 23.6C12.32 23.66 11.85 23.53 11.49 23.24L9.66 21.82C9.59 21.76 9.51 21.76 9.47 21.77C9.43 21.77 9.36 21.79 9.3 21.87L6.92 24.96C6.77 25.15 6.55 25.25 6.32 25.25C6.16 25.25 6 25.2 5.86 25.09C5.53 24.84 5.47 24.37 5.72 24.04L8.1 20.95C8.39 20.58 8.8 20.34 9.27 20.28C9.74 20.22 10.2 20.35 10.57 20.64L12.4 22.08C12.47 22.14 12.54 22.13 12.59 22.13C12.63 22.13 12.7 22.11 12.76 22.03L15.07 19.05C15.32 18.72 15.79 18.66 16.12 18.92C16.46 19.17 16.51 19.64 16.26 19.96Z" fill="#292D32"/>
</svg>
