<svg width="32" height="32" viewBox="0 0 32 32" fill="none" xmlns="http://www.w3.org/2000/svg">
<path d="M27.0667 9.42365L19.3867 4.05032C17.2933 2.58365 14.08 2.66365 12.0667 4.22365L5.38667 9.43699C4.05333 10.477 3 12.6103 3 14.2903V23.4903C3 26.8903 5.76 29.6636 9.16 29.6636H23.5333C26.9333 29.6636 29.6933 26.9037 29.6933 23.5037V14.4637C29.6933 12.6637 28.5333 10.4503 27.0667 9.42365ZM17.3467 24.3303C17.3467 24.877 16.8933 25.3303 16.3467 25.3303C15.8 25.3303 15.3467 24.877 15.3467 24.3303V20.3303C15.3467 19.7837 15.8 19.3303 16.3467 19.3303C16.8933 19.3303 17.3467 19.7837 17.3467 20.3303V24.3303Z" fill="white"/>
</svg>
