<?xml version="1.0" standalone="no"?>
<!DOCTYPE svg PUBLIC "-//W3C//DTD SVG 20010904//EN"
 "http://www.w3.org/TR/2001/REC-SVG-20010904/DTD/svg10.dtd">
<svg version="1.0" xmlns="http://www.w3.org/2000/svg"
 width="512.000000pt" height="512.000000pt" viewBox="0 0 512.000000 512.000000"
 preserveAspectRatio="xMidYMid meet">

<g transform="translate(0.000000,512.000000) scale(0.100000,-0.100000)"
fill="#000000" stroke="none">
<path d="M0 2560 l0 -2560 2560 0 2560 0 0 2560 0 2560 -2560 0 -2560 0 0
-2560z m2867 2309 c13 -5 40 -9 58 -9 55 0 337 -77 420 -115 205 -92 391 -198
460 -262 11 -10 41 -35 67 -56 77 -61 232 -226 292 -309 31 -42 56 -79 56 -82
0 -4 8 -16 18 -26 10 -11 44 -72 77 -137 76 -155 90 -189 76 -198 -10 -6 -21
18 -21 46 0 10 -4 19 -10 19 -5 0 -10 8 -10 19 0 10 -7 24 -15 31 -8 7 -15 21
-15 31 0 11 -4 19 -8 19 -5 0 -19 21 -32 48 -13 26 -26 49 -29 52 -4 3 -15 22
-26 43 -11 20 -23 37 -27 37 -5 0 -8 5 -8 11 0 7 -11 22 -24 34 -14 13 -22 26
-18 29 3 4 -4 9 -16 13 -12 3 -19 10 -16 15 3 5 -3 18 -15 29 -22 20 -36 25
-26 9 3 -6 -1 -7 -10 -4 -12 5 -13 10 -4 20 11 14 3 38 -10 30 -4 -3 -16 9
-26 27 -28 47 -130 144 -158 149 -20 4 -23 1 -19 -19 4 -24 18 -31 24 -13 2 5
16 -1 31 -14 30 -26 29 -58 -1 -34 -30 25 16 -35 63 -81 25 -25 45 -48 45 -53
0 -4 7 -5 16 -1 11 4 15 1 12 -13 -2 -11 2 -18 10 -17 6 2 12 -6 12 -17 0 -11
4 -20 8 -20 4 0 19 -18 32 -40 14 -22 28 -40 31 -40 4 0 12 -13 19 -30 7 -16
16 -30 21 -30 5 0 9 -9 9 -21 0 -13 8 -23 21 -26 11 -3 18 -11 16 -17 -3 -7 4
-29 14 -51 10 -21 19 -46 18 -54 0 -10 -5 -6 -12 9 -6 14 -14 27 -17 30 -4 3
-23 33 -44 68 -134 222 -345 436 -577 584 -91 58 -296 154 -404 188 -55 18
-109 36 -120 40 -11 5 -33 11 -50 13 -16 3 -73 14 -125 24 -136 26 -545 26
-675 0 -49 -10 -110 -22 -135 -27 -25 -4 -70 -16 -100 -25 -30 -9 -66 -19 -80
-22 -14 -3 -29 -9 -35 -13 -5 -3 -32 -15 -60 -24 -133 -47 -373 -189 -490
-288 -71 -60 -216 -206 -252 -253 -84 -111 -154 -220 -200 -315 -61 -123 -83
-174 -83 -189 0 -6 -4 -19 -9 -29 -5 -9 -19 -49 -31 -89 -16 -52 -28 -74 -42
-79 -32 -10 -46 13 -15 25 17 7 25 16 21 24 -3 8 4 38 15 68 12 30 21 62 21
72 0 9 5 17 10 17 6 0 10 10 10 23 0 13 5 28 11 34 13 13 3 89 -13 99 -7 4 -8
-11 -3 -47 7 -49 6 -52 -9 -40 -14 12 -16 11 -16 -7 0 -11 -7 -27 -15 -36 -8
-8 -15 -27 -15 -43 0 -15 -7 -37 -15 -47 -9 -11 -12 -29 -9 -43 5 -17 1 -28
-11 -37 -14 -10 -17 -21 -12 -49 5 -30 1 -39 -25 -63 l-31 -27 7 24 c4 13 11
51 17 83 5 32 14 67 19 77 6 10 10 27 10 38 0 12 4 29 9 39 5 9 16 42 26 72
42 135 171 384 236 453 10 12 19 24 19 28 0 4 23 34 52 66 218 244 471 422
783 553 21 8 150 48 200 61 173 45 228 55 385 69 104 10 464 2 497 -11z m1103
-609 c15 -16 33 -30 39 -30 6 0 11 -10 11 -22 0 -23 0 -23 -23 3 -12 14 -35
38 -51 52 -16 15 -23 27 -16 27 6 0 25 -13 40 -30z m-305 -374 c150 -42 270
-126 410 -287 63 -72 106 -112 140 -129 27 -14 56 -38 65 -53 19 -31 26 -162
10 -187 -7 -11 -10 2 -10 42 0 31 -4 59 -9 63 -5 3 -7 21 -4 40 5 32 3 35 -33
51 -22 9 -49 22 -62 27 -13 6 -46 42 -73 79 -111 153 -261 273 -404 323 -36
12 -69 25 -72 29 -4 3 -18 6 -32 7 -14 0 -35 5 -46 10 -32 14 50 4 120 -15z
m-566 -41 c133 -18 142 -26 117 -98 -29 -82 -120 -228 -171 -276 -54 -50 -99
-71 -152 -71 l-37 0 37 19 c20 10 48 22 61 25 54 13 136 111 211 249 53 99 49
109 -55 126 -122 19 -769 30 -880 14 -161 -22 -210 -13 -85 17 85 20 796 17
954 -5z m603 -59 c134 -44 259 -137 339 -253 47 -67 42 -73 -53 -73 -130 0
-300 -20 -321 -38 -19 -17 -22 -16 -31 15 -4 12 -2 24 4 28 6 4 8 16 4 28 -6
21 -6 21 20 4 23 -16 44 -17 169 -12 166 7 187 11 187 30 0 27 -143 161 -207
194 -73 36 -184 69 -268 77 -78 8 -139 -18 -182 -79 -42 -59 -123 -223 -123
-248 0 -20 4 -21 43 -16 24 4 48 2 53 -3 5 -5 65 -11 133 -12 116 -3 124 -4
132 -24 7 -22 6 -22 -84 -18 -131 5 -288 4 -314 -3 -18 -4 -23 -1 -23 15 0 45
133 318 178 365 58 61 198 70 344 23z m595 -98 c-3 -8 -6 -5 -6 6 -1 11 2 17
5 13 3 -3 4 -12 1 -19z m20 -50 c-3 -8 -6 -5 -6 6 -1 11 2 17 5 13 3 -3 4 -12
1 -19z m93 -32 c-7 -7 -10 1 -9 25 0 32 1 33 10 10 6 -16 6 -28 -1 -35z
m-2781 -2 c26 -5 29 -9 19 -21 -16 -20 -53 -39 -43 -23 5 8 -1 20 -16 31 -27
21 -16 24 40 13z m-161 -55 c-9 -27 -8 -34 10 -52 21 -20 22 -20 42 -2 22 20
36 15 27 -10 -4 -9 -19 -15 -36 -15 -16 0 -42 -5 -57 -10 -38 -15 -57 4 -26
26 14 9 22 26 22 43 0 15 5 32 12 39 17 17 18 15 6 -19z m2972 -11 c0 -49 -5
-47 -14 5 -4 23 -3 37 4 37 5 0 10 -19 10 -42z m-93 10 c-3 -8 -6 -5 -6 6 -1
11 2 17 5 13 3 -3 4 -12 1 -19z m-877 -11 c-14 -8 -41 -17 -59 -20 -28 -6 -32
-5 -21 7 12 15 36 22 80 25 l25 1 -25 -13z m994 -100 c4 -31 3 -46 -4 -42 -5
3 -10 27 -10 52 0 58 7 53 14 -10z m-97 21 c-3 -8 -6 -5 -6 6 -1 11 2 17 5 13
3 -3 4 -12 1 -19z m-1572 -77 c-6 -5 -28 -11 -50 -14 -22 -3 -69 -13 -105 -22
-36 -9 -96 -23 -135 -31 -38 -9 -88 -20 -110 -25 -74 -18 -125 -26 -125 -19 0
6 48 21 135 40 22 5 69 16 105 25 36 9 90 20 120 25 30 5 75 13 100 18 63 13
76 14 65 3z m-1918 -7 c-3 -3 -12 -4 -19 -1 -8 3 -5 6 6 6 11 1 17 -2 13 -5z
m3520 -41 c-3 -10 -5 -4 -5 12 0 17 2 24 5 18 2 -7 2 -21 0 -30z m-3567 23 c0
-2 -7 -7 -16 -10 -8 -3 -12 -2 -9 4 6 10 25 14 25 6z m3658 -144 c-1 -119 -2
-128 -8 -67 -12 110 -11 217 0 210 6 -4 9 -61 8 -143z m-3810 28 c-11 -17 -9
-27 12 -64 28 -52 19 -74 -14 -33 -34 43 -46 35 -46 -32 0 -33 5 -63 10 -66 6
-3 10 -15 10 -25 0 -29 19 -34 29 -8 l8 23 7 -23 c4 -12 12 -22 17 -22 23 0 5
-16 -30 -27 -53 -17 -69 -9 -82 39 -20 75 11 195 61 238 29 25 33 25 18 0z
m2835 13 c-7 -2 -19 -2 -25 0 -7 3 -2 5 12 5 14 0 19 -2 13 -5z m711 -19 c27
-10 18 -20 -16 -17 -51 6 -89 -25 -124 -98 -38 -79 -84 -242 -84 -296 0 -39
-14 -50 -70 -56 -25 -3 -76 -13 -115 -22 -38 -9 -88 -20 -110 -24 -22 -4 -56
-12 -75 -18 -19 -7 -60 -17 -90 -23 -30 -6 -75 -18 -100 -25 -97 -29 -230 -51
-230 -38 0 5 37 17 83 27 45 10 105 24 134 32 28 8 61 14 72 14 12 0 29 4 39
9 15 8 59 18 227 52 28 6 73 17 101 25 28 8 60 14 72 14 26 0 55 40 46 64 -5
12 -21 16 -63 18 l-56 2 50 3 c53 5 85 25 85 53 0 53 79 242 117 283 26 27 70
35 107 21z m-831 -11 c-7 -2 -19 -2 -25 0 -7 3 -2 5 12 5 14 0 19 -2 13 -5z
m-74 -17 c-12 -10 -59 -15 -59 -6 0 5 14 10 32 10 17 0 29 -2 27 -4z m-289
-29 c0 -7 9 -18 20 -25 11 -7 20 -19 20 -27 0 -20 -3 -19 -46 10 -20 14 -48
25 -61 25 -41 0 -131 -49 -168 -92 -81 -95 -150 -282 -186 -503 -22 -128 -3
-121 -341 -130 -273 -7 -472 -3 -678 13 -63 5 76 9 410 12 350 4 513 9 531 17
29 12 36 35 65 187 18 97 59 227 93 294 65 128 115 183 196 215 49 20 145 23
145 4z m180 3 c0 -5 -15 -10 -32 -9 -28 0 -30 2 -13 9 28 12 45 12 45 0z
m1090 -47 c0 -7 -4 -13 -10 -13 -5 0 -10 6 -10 14 0 8 -3 23 -6 33 -5 16 -4
16 10 -1 9 -11 16 -26 16 -33z m-1755 17 c-3 -5 -15 -10 -25 -10 -11 0 -29 -4
-42 -9 -13 -5 -48 -14 -78 -21 -103 -23 -266 -116 -276 -156 -4 -17 -13 -24
-29 -24 l-23 0 26 32 c46 54 73 77 113 95 22 9 39 20 39 25 0 4 8 8 17 8 9 0
24 6 32 14 32 28 262 71 246 46z m95 -9 c0 -36 -171 -160 -203 -148 -7 3 -4 8
8 13 11 4 50 32 88 63 50 41 66 60 61 73 -4 14 0 18 20 18 19 0 26 -5 26 -19z
m-1870 -41 c19 -17 29 -30 22 -30 -7 0 -27 13 -45 30 -41 39 -23 38 23 0z
m3454 14 c9 -3 16 -13 16 -21 0 -11 -7 -13 -31 -8 -22 5 -36 2 -50 -11 -23
-21 -38 -11 -18 12 22 26 57 38 83 28z m-3404 -69 c0 -8 -4 -15 -10 -15 -5 0
-10 7 -10 15 0 8 5 15 10 15 6 0 10 -7 10 -15z m1210 8 c-8 -3 -28 -11 -45
-18 -16 -7 -38 -15 -47 -19 -38 -12 -17 -47 37 -61 23 -6 26 -9 12 -13 -26 -6
-118 40 -115 57 2 7 19 19 38 26 80 28 96 33 115 33 14 0 15 -1 5 -5z m2247
-27 c-4 -9 -11 -16 -17 -16 -11 0 -14 33 -3 44 11 10 26 -11 20 -28z m-3182
-6 c-138 -4 -198 -9 -220 -20 -41 -20 -88 -64 -121 -112 -26 -36 -27 -42 -15
-76 37 -109 83 -163 152 -179 l44 -11 -46 -1 c-38 -1 -52 4 -82 32 -39 34
-107 152 -107 184 0 23 42 88 74 117 77 68 103 74 321 73 l190 -1 -190 -6z
m1922 -17 c48 -22 98 -95 119 -170 45 -165 -33 -422 -146 -485 -44 -24 -125
-20 -163 8 -34 25 -69 88 -65 117 3 19 7 17 31 -21 47 -73 76 -68 88 16 7 46
7 45 6 -16 0 -70 10 -85 53 -75 14 3 28 8 33 10 12 7 6 94 -11 163 -13 50 -22
66 -37 68 -27 5 -55 31 -55 52 0 10 -6 22 -13 28 -10 9 -25 0 -62 -38 -27 -28
-53 -50 -57 -50 -15 0 -8 49 8 62 38 31 71 64 75 77 4 11 10 11 26 3 25 -14
33 -7 33 27 0 41 11 71 26 71 14 0 31 25 51 75 l11 30 1 -28 c1 -28 -10 -52
-41 -96 -10 -13 -18 -32 -18 -41 0 -24 33 -62 45 -52 13 9 115 162 115 171 0
5 -11 20 -24 36 -17 19 -30 26 -44 23 -13 -4 -23 0 -26 8 -7 19 -50 18 -66 -1
-7 -8 -22 -15 -35 -15 -15 0 -28 -11 -41 -35 -10 -19 -22 -35 -26 -35 -4 0 -4
-16 -1 -35 5 -30 3 -34 -11 -29 -24 9 -20 38 15 94 56 91 128 120 206 83z
m-1305 -7 c38 -16 118 -97 118 -119 0 -21 -93 -159 -142 -213 -45 -48 -86 -75
-115 -73 -13 0 -10 4 9 13 15 6 41 25 58 41 48 46 140 198 140 230 0 41 -78
115 -123 116 -17 0 -41 4 -52 9 -15 7 -9 9 26 9 26 1 62 -5 81 -13z m2473 -76
c7 0 15 5 17 12 2 6 24 11 49 11 43 0 44 -1 47 -33 3 -28 1 -32 -15 -25 -10 4
-32 9 -50 12 -25 3 -32 0 -38 -16 -3 -12 -3 -30 0 -41 8 -25 -16 -28 -36 -4
-8 10 -21 13 -36 9 -34 -8 -30 27 7 58 21 18 31 36 32 59 1 33 1 33 5 -4 3
-23 9 -38 18 -38z m-2960 20 c-3 -5 -13 -10 -21 -10 -8 0 -14 5 -14 10 0 6 9
10 21 10 11 0 17 -4 14 -10z m45 -45 c0 -14 -4 -25 -9 -25 -4 0 -6 11 -3 25 2
14 6 25 8 25 2 0 4 -11 4 -25z m-690 -50 c0 -3 -10 -5 -22 -3 -18 2 -24 11
-26 37 l-4 34 26 -30 c14 -17 26 -34 26 -38z m599 16 c42 3 61 0 61 -11 0 -5
-17 -10 -37 -10 -39 0 -73 23 -72 49 0 11 4 9 11 -7 8 -16 19 -22 37 -21z
m2659 -7 c-6 -5 -66 -17 -173 -32 -27 -4 -55 -11 -62 -15 -6 -4 -37 -11 -70
-16 -32 -5 -94 -17 -138 -26 -126 -26 -149 -29 -141 -16 4 6 21 11 37 11 17 0
38 4 48 10 18 9 82 23 191 40 63 10 151 28 195 40 35 9 121 13 113 4z m457
-66 c-10 -59 -42 -132 -70 -158 -28 -26 -63 -22 -83 11 -18 28 -8 36 24 18 23
-12 27 -12 40 6 7 11 21 28 31 38 10 10 16 30 15 46 -1 18 4 31 13 35 8 3 15
15 15 26 0 11 5 20 11 20 7 0 8 -14 4 -42z m-1904 -15 c26 -16 66 -89 55 -101
-3 -2 -10 6 -15 19 -14 38 -56 70 -99 76 -36 5 -110 -3 -262 -27 -110 -18
-125 -20 -110 -14 8 4 29 12 45 19 17 7 50 16 75 20 25 4 68 10 95 15 94 14
185 11 216 -7z m1589 -62 c0 -6 -21 -13 -47 -16 -27 -4 -61 -11 -78 -16 -16
-4 -64 -16 -105 -24 -126 -28 -203 -45 -240 -55 -49 -13 -238 -57 -279 -65
-26 -6 -32 -4 -29 6 3 8 15 15 29 17 13 2 87 19 164 39 153 38 197 48 265 62
25 5 77 17 115 26 39 9 97 20 130 24 33 5 63 9 68 10 4 0 7 -3 7 -8z m-1630
-57 c0 -8 -4 -12 -10 -9 -5 3 -10 13 -10 21 0 8 5 12 10 9 6 -3 10 -13 10 -21z
m-1770 1 c11 -13 8 -15 -14 -15 -16 0 -26 5 -26 15 0 8 6 15 14 15 7 0 19 -7
26 -15z m160 -32 c0 -22 -28 -27 -73 -13 -59 19 -71 34 -21 25 31 -5 44 -2 54
10 10 12 16 13 26 4 8 -6 14 -18 14 -26z m2124 -41 c-27 -46 -64 -88 -64 -73
0 22 61 112 71 105 5 -3 2 -17 -7 -32z m-2206 -24 c63 -16 192 -37 290 -47
112 -11 130 -21 39 -21 -147 0 -405 56 -429 93 -15 24 -7 26 27 6 20 -12 52
-26 73 -31z m547 43 c34 -7 28 -9 -40 -9 -44 0 -93 4 -110 8 -43 11 97 11 150
1z m1275 -44 c0 -10 -10 -21 -22 -25 -13 -4 -147 -6 -298 -6 -409 2 -400 2
-400 18 0 24 20 29 34 10 12 -16 31 -17 257 -11 340 9 400 15 407 39 4 15 7
17 13 6 5 -7 9 -21 9 -31z m-930 29 c0 -9 -40 -13 -46 -5 -3 5 6 9 20 9 14 0
26 -2 26 -4z m-447 -103 c-7 -2 -19 -2 -25 0 -7 3 -2 5 12 5 14 0 19 -2 13 -5z
m155 -10 c-21 -2 -57 -2 -80 0 -24 2 -7 4 37 4 44 0 63 -2 43 -4z m3079 -45
c-3 -8 -6 -5 -6 6 -1 11 2 17 5 13 3 -3 4 -12 1 -19z m-117 -208 c0 -5 -5 -10
-11 -10 -5 0 -7 5 -4 10 3 6 8 10 11 10 2 0 4 -4 4 -10z m-2355 -1189 c64 -32
90 -55 124 -111 66 -109 71 -251 13 -393 -17 -41 -104 -127 -129 -127 -8 0 4
15 27 33 53 40 90 105 90 158 0 37 -1 39 -21 29 -17 -10 -21 -8 -26 10 -8 29
-27 20 -31 -15 -5 -41 -96 -155 -124 -155 -15 0 -8 11 21 36 49 41 71 102 71
199 0 95 -15 143 -58 188 -41 44 -75 57 -144 57 -52 -1 -70 -6 -103 -28 -50
-34 -97 -123 -103 -197 -8 -97 54 -233 106 -235 15 0 6 -20 -9 -20 -6 0 -36
26 -67 58 -64 65 -98 81 -107 51 -12 -35 6 -78 50 -124 26 -26 38 -45 30 -45
-8 0 -15 4 -15 8 0 5 -11 15 -25 22 -62 33 -105 148 -105 277 0 83 3 101 29
156 17 34 36 69 43 77 40 44 81 74 134 96 53 22 71 24 169 22 93 -3 118 -7
160 -27z m2982 13 c61 -20 81 -39 33 -30 -97 18 -131 18 -179 2 -27 -9 -57
-16 -67 -16 -9 0 -32 -11 -50 -25 -18 -14 -36 -25 -39 -25 -15 0 -62 -58 -82
-100 -16 -33 -22 -39 -23 -23 0 30 34 90 78 136 33 34 64 53 142 85 38 16 134
14 187 -4z m-4388 -7 c20 -25 214 -593 208 -610 -3 -11 -47 71 -47 90 0 5 -9
18 -20 28 -11 10 -20 26 -20 37 0 10 -4 18 -10 18 -5 0 -10 -4 -10 -9 0 -10
-19 -9 -37 2 -6 4 -23 3 -38 -3 -14 -5 -66 -10 -115 -10 -80 0 -90 2 -104 22
-9 12 -16 30 -16 39 0 9 -7 22 -15 29 -13 10 -19 10 -35 -5 -11 -10 -20 -24
-20 -32 0 -7 -7 -16 -15 -19 -8 -4 -15 -17 -15 -30 0 -13 -4 -24 -9 -24 -6 0
-6 11 -1 28 18 60 43 138 48 152 2 8 23 65 44 125 22 61 42 119 45 130 13 44
33 55 103 55 44 0 71 -5 79 -13z m2780 -6 c4 -6 31 -85 60 -174 91 -280 95
-292 111 -295 17 -3 34 31 63 123 33 104 113 330 120 343 9 14 137 17 137 3 0
-4 -12 -39 -26 -77 -14 -38 -28 -78 -31 -89 -5 -23 -14 -45 -37 -98 -9 -21
-16 -46 -16 -57 0 -10 -4 -22 -10 -25 -5 -3 -10 -14 -10 -23 0 -9 -7 -30 -15
-46 -8 -15 -15 -37 -15 -47 0 -10 -4 -21 -10 -24 -5 -3 -10 -14 -10 -23 0 -9
-7 -30 -15 -46 -8 -15 -15 -36 -16 -45 -1 -23 -32 -74 -49 -79 -8 -3 -5 7 8
26 12 16 22 39 22 50 0 12 5 24 10 27 6 3 10 22 10 41 0 19 4 42 9 52 9 17 31
104 31 122 0 6 -7 10 -15 10 -8 0 -15 7 -15 15 0 8 -4 15 -10 15 -5 0 -10 -11
-10 -24 0 -14 5 -28 10 -31 6 -3 10 -11 10 -18 0 -6 -6 -3 -13 8 -15 19 -37
13 -37 -9 0 -8 -9 -34 -20 -60 -21 -46 -46 -59 -76 -38 -20 14 -44 57 -44 79
0 27 -20 32 -20 6 -1 -17 -1 -17 -14 0 -7 9 -18 17 -24 17 -13 0 -8 -37 13
-110 7 -25 19 -67 25 -95 7 -27 20 -56 28 -62 9 -7 13 -16 9 -20 -11 -10 -44
26 -50 55 -5 26 -78 239 -89 258 -2 5 -31 89 -64 187 -50 152 -56 180 -44 188
20 13 120 6 129 -10z m-2269 -264 c-1 -150 2 -280 6 -290 3 -9 2 -17 -3 -17
-19 0 -33 26 -33 61 0 38 -13 58 -25 39 -4 -7 -12 -7 -25 0 -21 11 -24 2 -35
-110 -5 -61 3 -83 31 -80 11 1 39 1 64 -1 36 -2 30 -4 -30 -8 -41 -3 -78 -5
-82 -3 -5 2 -8 156 -8 343 l0 339 70 0 70 0 0 -273z m1928 123 c29 -80 57
-154 62 -165 5 -11 21 -56 35 -100 14 -44 30 -88 35 -97 6 -10 10 -24 10 -32
0 -7 11 -39 25 -70 14 -31 25 -61 25 -66 0 -6 -33 -10 -74 -10 l-73 0 -16 43
c-8 23 -18 52 -22 64 -3 12 -14 25 -25 28 -37 12 -205 15 -232 4 -25 -10 -58
-69 -58 -103 0 -21 -26 -38 -52 -34 -22 3 -22 4 6 18 21 11 33 27 42 58 6 23
19 54 28 68 16 24 19 24 138 23 120 -1 121 -1 149 -30 16 -16 29 -38 29 -47 0
-10 6 -30 13 -45 11 -24 17 -27 65 -27 28 0 52 4 52 10 0 10 -33 98 -55 147
-8 17 -15 34 -15 38 0 3 -7 13 -15 21 -8 9 -15 24 -15 35 0 10 -4 19 -9 19 -5
0 -12 8 -14 18 -3 9 -5 4 -4 -12 1 -16 -4 -31 -10 -33 -7 -3 -13 2 -13 11 0 9
-7 16 -15 16 -9 0 -15 -6 -13 -12 1 -7 -1 -22 -5 -34 -7 -20 -14 -21 -105 -19
-112 2 -132 8 -132 41 0 17 -6 24 -19 24 -11 0 -21 6 -24 13 -3 10 -18 -16
-41 -73 -3 -8 -10 -22 -15 -30 -27 -42 -62 -134 -63 -165 -1 -22 -6 -35 -15
-35 -17 0 -17 34 1 73 8 18 16 41 19 52 3 11 17 52 30 90 60 165 110 305 134
375 14 41 30 81 36 88 7 9 33 12 86 10 l76 -3 53 -145z m1450 93 l-3 -58 -92
-5 c-50 -3 -94 -8 -98 -12 -4 -3 -9 -128 -12 -277 -4 -149 -9 -271 -12 -271
-3 0 -7 77 -8 170 -2 173 -18 282 -34 230 -4 -14 -8 -18 -8 -10 -2 20 -26 -36
-34 -80 -23 -117 -23 -117 -31 55 -4 94 -9 175 -11 182 -3 8 -35 13 -97 15
l-93 3 -3 44 c-6 75 -22 71 273 71 l266 0 -3 -57z m612 11 c0 -2 -9 -4 -21 -4
-11 0 -18 4 -14 10 5 8 35 3 35 -6z m-119 -41 c34 -20 38 -38 7 -29 -96 29
-171 13 -233 -49 -22 -23 -46 -57 -52 -76 -11 -33 -11 -33 -12 -6 -2 44 60
131 113 158 43 23 140 24 177 2z m54 -43 c3 -5 1 -10 -4 -10 -6 0 -11 5 -11
10 0 6 2 10 4 10 3 0 8 -4 11 -10z m30 -30 c3 -5 1 -10 -4 -10 -6 0 -11 5 -11
10 0 6 2 10 4 10 3 0 8 -4 11 -10z m-4804 -383 c-13 -13 -15 1 -4 30 7 17 8
17 11 -1 2 -10 -1 -23 -7 -29z m403 7 c20 -19 29 -54 23 -85 -4 -22 -4 -22
-11 6 -15 61 -22 64 -154 70 -113 5 -122 4 -141 -16 -10 -11 -22 -34 -25 -51
-7 -34 -23 -58 -39 -58 -5 0 -4 8 4 18 8 9 21 35 28 57 24 73 29 75 172 75
103 0 131 -3 143 -16z m722 -96 l-1 -53 -37 -1 c-20 -1 -43 3 -50 8 -9 6 -2 8
20 5 28 -3 35 0 43 20 16 42 -4 63 -64 65 l-52 1 65 6 c36 4 68 5 71 4 4 -2 6
-26 5 -55z m-179 46 c-3 -3 -12 -4 -19 -1 -8 3 -5 6 6 6 11 1 17 -2 13 -5z
m697 -6 c-7 -11 -151 -10 -158 1 -3 4 32 8 79 8 46 -1 81 -5 79 -9z m-1071
-60 c9 -33 1 -38 -69 -38 -59 0 -64 2 -64 22 0 19 2 20 18 6 25 -22 92 -13 92
13 0 26 16 24 23 -3z m-609 -9 c-3 -5 -10 -7 -15 -3 -5 3 -7 10 -3 15 3 5 10
7 15 3 5 -3 7 -10 3 -15z m1466 1 c13 -9 13 -10 0 -10 -8 0 -22 5 -30 10 -13
9 -13 10 0 10 8 0 22 -5 30 -10z m290 0 c-19 -13 -30 -13 -30 0 0 6 10 10 23
10 18 0 19 -2 7 -10z m-75 -20 c-3 -6 -42 -9 -88 -8 l-82 2 70 6 c39 4 78 7
88 8 10 1 15 -2 12 -8z"/>
<path d="M2355 4843 c11 -3 25 -10 30 -15 7 -7 -25 -8 -100 -4 -93 6 -107 4
-91 -7 21 -15 199 -12 204 4 5 14 82 11 82 -3 0 -9 3 -8 10 2 7 12 16 12 49 4
32 -9 43 -8 52 2 7 8 41 14 92 17 45 1 -15 3 -133 4 -118 0 -206 -1 -195 -4z"/>
<path d="M2808 4823 c-27 -2 -48 -9 -48 -15 0 -6 12 -8 31 -4 17 3 51 6 75 6
24 0 44 5 44 10 0 10 -8 10 -102 3z"/>
<path d="M2050 4789 c-36 -10 -72 -27 -81 -38 -14 -17 -18 -18 -30 -6 -12 11
-20 11 -54 -1 -22 -7 -48 -14 -57 -14 -22 0 -13 -27 12 -35 27 -9 97 12 121
36 10 10 19 14 19 9 0 -7 6 -7 19 0 11 5 36 10 55 10 23 0 36 5 36 13 0 10 18
14 66 15 37 0 71 5 76 10 7 7 -3 9 -29 5 -25 -3 -43 -1 -47 6 -9 14 -27 13
-106 -10z"/>
<path d="M3040 4788 c0 -11 28 -10 35 1 3 6 -4 9 -15 8 -11 -1 -20 -5 -20 -9z"/>
<path d="M1760 4700 c-13 -8 -13 -10 0 -14 18 -6 40 -9 58 -7 11 1 10 4 -2 16
-17 17 -34 19 -56 5z"/>
<path d="M1690 4665 c-7 -8 -22 -15 -34 -16 -11 0 -15 -3 -8 -6 20 -8 59 5 66
22 7 19 -8 19 -24 0z"/>
<path d="M1740 4662 c0 -11 39 -12 45 -1 4 5 -5 9 -19 9 -14 0 -26 -4 -26 -8z"/>
<path d="M1640 4610 c0 -5 5 -10 10 -10 6 0 10 5 10 10 0 6 -4 10 -10 10 -5 0
-10 -4 -10 -10z"/>
<path d="M3555 4590 c3 -5 8 -10 11 -10 2 0 4 5 4 10 0 6 -5 10 -11 10 -5 0
-7 -4 -4 -10z"/>
<path d="M1496 4565 c-8 -8 -19 -15 -25 -15 -23 0 -10 -18 17 -23 19 -4 33 1
46 16 20 20 20 20 -2 15 -23 -6 -31 7 -9 15 8 4 9 6 0 6 -6 1 -18 -6 -27 -14z"/>
<path d="M1429 4524 c-1 -5 -1 -12 0 -16 0 -5 -9 -8 -21 -9 l-23 0 22 -11 c16
-8 30 -7 52 3 17 8 31 17 31 21 0 12 -18 9 -26 -4 -5 -7 -11 -5 -21 7 -7 11
-14 15 -14 9z"/>
<path d="M3675 4520 c-3 -5 -1 -10 4 -10 6 0 11 5 11 10 0 6 -2 10 -4 10 -3 0
-8 -4 -11 -10z"/>
<path d="M3670 4490 c-8 -5 -10 -10 -5 -10 6 0 17 5 25 10 8 5 11 10 5 10 -5
0 -17 -5 -25 -10z"/>
<path d="M1360 4471 c0 -5 11 -11 25 -13 28 -6 34 6 9 16 -22 8 -34 7 -34 -3z"/>
<path d="M1299 4433 c-13 -17 -13 -17 6 -3 11 8 22 16 24 17 2 2 0 3 -6 3 -6
0 -17 -8 -24 -17z"/>
<path d="M3752 4430 c2 -8 15 -16 29 -18 13 -2 30 -11 37 -20 11 -14 12 -14
12 2 0 9 5 14 10 11 23 -14 8 6 -16 21 -21 14 -27 15 -34 4 -7 -11 -11 -11
-26 1 -15 12 -17 12 -12 -1z"/>
<path d="M3785 4390 c3 -5 8 -10 11 -10 2 0 4 5 4 10 0 6 -5 10 -11 10 -5 0
-7 -4 -4 -10z"/>
<path d="M1245 4380 c-3 -5 -1 -10 4 -10 6 0 11 5 11 10 0 6 -2 10 -4 10 -3 0
-8 -4 -11 -10z"/>
<path d="M1165 4320 c3 -5 8 -10 11 -10 2 0 4 5 4 10 0 6 -5 10 -11 10 -5 0
-7 -4 -4 -10z"/>
<path d="M1120 4270 c0 -5 5 -10 11 -10 5 0 7 5 4 10 -3 6 -8 10 -11 10 -2 0
-4 -4 -4 -10z"/>
<path d="M810 3787 c0 -9 -6 -15 -12 -13 -7 1 -10 1 -7 -1 3 -2 4 -15 1 -30
-7 -37 15 -21 23 18 4 17 4 33 1 36 -3 4 -6 -1 -6 -10z"/>
<path d="M3046 2826 c-20 -25 -36 -49 -36 -54 0 -24 97 -31 106 -8 6 16 -13
93 -25 100 -5 3 -25 -14 -45 -38z"/>
<path d="M2966 2698 c-19 -26 -20 -50 -5 -65 6 -6 12 -31 14 -54 4 -64 31
-145 46 -141 19 5 38 34 39 59 0 12 -13 42 -29 65 -37 54 -32 61 10 14 17 -20
37 -35 42 -33 13 4 37 89 37 130 0 31 -3 33 -82 41 -51 5 -58 4 -72 -16z"/>
<path d="M356 838 c-3 -7 -19 -57 -37 -110 -17 -53 -29 -104 -25 -113 5 -13
20 -15 83 -13 71 3 78 5 81 24 5 34 -63 218 -82 222 -9 2 -18 -2 -20 -10z"/>
<path d="M3571 724 c0 -11 3 -14 6 -6 3 7 2 16 -1 19 -3 4 -6 -2 -5 -13z"/>
<path d="M3271 664 c0 -11 3 -14 6 -6 3 7 2 16 -1 19 -3 4 -6 -2 -5 -13z"/>
<path d="M2741 823 c-7 -16 -21 -54 -32 -85 -10 -32 -23 -67 -29 -78 -6 -11
-8 -30 -5 -40 6 -18 16 -20 86 -20 60 0 81 4 85 15 3 7 -9 56 -26 107 -49 141
-57 150 -79 101z"/>
</g>
</svg>
