<svg width="24" height="22" viewBox="0 0 24 22" fill="none" xmlns="http://www.w3.org/2000/svg">
<path d="M17.9266 10.6578C17.8243 8.62841 17.0223 7.5466 16.1457 6.97084C17.0225 7.54571 17.8244 8.62679 17.9266 10.6578ZM13.7744 6.32289L13.7491 6.32364H13.7468L13.7456 6.32368L13.7451 6.32371L13.7453 6.32368H13.7456V6.32349L13.7468 6.32342L13.7473 6.3234L13.7744 6.32289ZM13.7436 6.32375L13.7431 6.32377H13.7427L13.7423 6.32379L13.7425 6.32377H13.7427M13.7415 6.32382L13.7412 6.32384H13.7409H13.7406M13.739 6.32391H13.7389H13.7386H13.7385H13.7383M0.00960297 1.54329V6.92238V7.51781L0.607217 7.51766L13.7456 7.5147V7.51704C13.7866 7.51704 13.7317 7.51591 13.7842 7.51419C14.0533 7.50583 16.7424 7.43139 16.7424 11.1036C16.7424 14.6803 13.9163 14.69 13.7514 14.6905H13.7444L13.7356 14.6907L0.607229 14.6935L0.00961632 14.6936V15.2888V20.6665V21.2641H0.607229L14.1797 21.2641C15.915 21.2641 18.7361 20.3946 20.7504 18.0972C22.1479 16.5034 23.1621 14.2316 23.1621 11.1036C23.1621 7.91819 22.1685 5.594 20.7501 3.97673C18.867 1.82969 16.2384 0.945674 14.1797 0.945674L0.60721 0.945674H0.00959534L0.00960297 1.54329ZM13.7446 6.32371L13.7443 6.32374H13.744L13.7436 6.32375L13.7433 6.32376L13.7431 6.32377M13.7419 6.32379L13.7415 6.32382L13.7414 6.32383L13.7412 6.32384M13.739 6.32391H13.7389H13.739ZM13.7473 6.3234L13.7478 6.32338L13.7484 6.32334L13.7489 6.32332L13.7495 6.32327L13.7501 6.32325L13.7506 6.32321L13.7512 6.32318L13.7517 6.32314L13.7522 6.32312L13.7528 6.32308L13.7533 6.32305L13.7535 6.32303L13.7539 6.32301H13.754L13.7544 6.32299L13.7545 6.32296L13.7549 6.32294H13.7551L13.7554 6.32292L13.7556 6.3229L13.7559 6.32288H13.7561L13.7563 6.32285L13.7566 6.32283L13.7568 6.32281L13.7571 6.32279H13.7573L13.7575 6.32277L13.7577 6.32275L13.7579 6.32272H13.7581L13.7584 6.3227L13.7585 6.32268L13.7588 6.32266L13.7591 6.32263L13.7595 6.32259L13.7598 6.32255L13.7601 6.32252L13.7604 6.32248L13.7606 6.32246L13.7609 6.32241L13.7611 6.32239L13.7612 6.32237L13.7614 6.32233L13.7615 6.32228L13.7614 6.32215L13.7612 6.3221L13.761 6.32208L13.7607 6.32206L13.7605 6.32204L13.7601 6.32202L13.7597 6.32199H13.7596L13.7593 6.32197H13.7591H13.7589L13.7586 6.32195H13.7584L13.7581 6.32193H13.7578H13.7575L13.7572 6.32191H13.7568H13.7565L13.7561 6.32188H13.7558H13.7553L13.7551 6.32186H13.7545H13.7543H13.7536H13.7534L13.7526 6.32184H13.7524H13.7516H13.7515H13.7506H13.7504L13.7494 6.32182H13.7482H13.747H13.7456L13.7456 6.32349" fill="#EF4444"/>
</svg>
