<svg width="59" height="46" viewBox="0 0 59 46" fill="none" xmlns="http://www.w3.org/2000/svg">
<g clip-path="url(#clip0_8962_14775)">
<path d="M10.6943 45.8993V42.8465C10.6943 41.6787 9.98574 40.914 8.76937 40.914C8.16118 40.914 7.49985 41.1155 7.04519 41.7794C6.69091 41.2222 6.1831 40.914 5.42139 40.914C4.91358 40.914 4.40578 41.0681 4.00426 41.6253V41.0148H2.94141V45.8993H4.00426V43.2021C4.00426 42.3367 4.45892 41.9276 5.16749 41.9276C5.87605 41.9276 6.23034 42.3841 6.23034 43.2021V45.8993H7.29319V43.2021C7.29319 42.3367 7.80099 41.9276 8.45642 41.9276C9.16498 41.9276 9.51927 42.3841 9.51927 43.2021V45.8993H10.6943ZM26.4599 41.0148H24.7357V39.5387H23.6729V41.0148H22.7104V41.981H23.6729V44.2217C23.6729 45.3421 24.1276 46.0001 25.3439 46.0001C25.7986 46.0001 26.3064 45.8459 26.6607 45.6444L26.3536 44.7256C26.0466 44.9271 25.6923 44.9805 25.4384 44.9805C24.9306 44.9805 24.7298 44.6722 24.7298 44.1684V41.981H26.454V41.0148H26.4599ZM35.4823 40.908C34.8741 40.908 34.4667 41.2163 34.2128 41.6194V41.0088H33.15V45.8934H34.2128V43.1428C34.2128 42.3307 34.5671 41.8684 35.2284 41.8684C35.4292 41.8684 35.6831 41.9217 35.8898 41.9691L36.1968 40.9495C35.9842 40.908 35.6831 40.908 35.4823 40.908ZM21.8483 41.4178C21.3405 41.0622 20.632 40.908 19.8702 40.908C18.6539 40.908 17.8449 41.5186 17.8449 42.4849C17.8449 43.297 18.4531 43.7593 19.516 43.9075L20.0238 43.9609C20.5788 44.0617 20.8859 44.2158 20.8859 44.4707C20.8859 44.8263 20.4784 45.0812 19.7699 45.0812C19.0613 45.0812 18.5004 44.8264 18.1461 44.5715L17.6383 45.3836C18.1933 45.7926 18.955 45.9941 19.7167 45.9941C21.1339 45.9941 21.9487 45.3302 21.9487 44.4173C21.9487 43.5519 21.2874 43.0954 20.2777 42.9413L19.7699 42.8879C19.3152 42.8346 18.9609 42.7338 18.9609 42.4315C18.9609 42.0758 19.3152 41.8743 19.8762 41.8743C20.4843 41.8743 21.0925 42.1292 21.3996 42.2833L21.8483 41.4178ZM50.126 40.908C49.5179 40.908 49.1104 41.2163 48.8565 41.6194V41.0088H47.7937V45.8934H48.8565V43.1428C48.8565 42.3307 49.2108 41.8684 49.8721 41.8684C50.0729 41.8684 50.3268 41.9217 50.5335 41.9691L50.8405 40.9614C50.6339 40.908 50.3327 40.908 50.126 40.908ZM36.5452 43.457C36.5452 44.933 37.5608 46.0001 39.1315 46.0001C39.84 46.0001 40.3478 45.8459 40.8556 45.4428L40.3478 44.5774C39.9404 44.8856 39.5389 45.0338 39.0783 45.0338C38.2162 45.0338 37.608 44.4233 37.608 43.457C37.608 42.5382 38.2162 41.9276 39.0783 41.8802C39.533 41.8802 39.9404 42.0343 40.3478 42.3367L40.8556 41.4712C40.3478 41.0622 39.84 40.914 39.1315 40.914C37.5608 40.9081 36.5452 41.981 36.5452 43.457ZM46.3765 43.457V41.0148H45.3137V41.6253C44.9594 41.1689 44.4516 40.914 43.7903 40.914C42.4204 40.914 41.3575 41.981 41.3575 43.457C41.3575 44.933 42.4204 46.0001 43.7903 46.0001C44.4988 46.0001 45.0067 45.7452 45.3137 45.2887V45.8993H46.3765V43.457ZM42.4735 43.457C42.4735 42.5916 43.0286 41.8802 43.9438 41.8802C44.8059 41.8802 45.4141 42.5441 45.4141 43.457C45.4141 44.3225 44.8059 45.0338 43.9438 45.0338C43.0345 44.9805 42.4735 44.3166 42.4735 43.457ZM29.7548 40.908C28.3376 40.908 27.322 41.9276 27.322 43.4511C27.322 44.9805 28.3376 45.9941 29.8079 45.9941C30.5165 45.9941 31.225 45.7926 31.786 45.3302L31.2782 44.5655C30.8707 44.8738 30.3629 45.0753 29.861 45.0753C29.1997 45.0753 28.5443 44.7671 28.3908 43.9075H31.9867C31.9867 43.7534 31.9867 43.6526 31.9867 43.4985C32.034 41.9276 31.1187 40.908 29.7548 40.908ZM29.7548 41.8269C30.4161 41.8269 30.8707 42.2359 30.9711 42.9946H28.438C28.5384 42.3367 28.993 41.8269 29.7548 41.8269ZM56.1607 43.457V39.0823H55.0978V41.6253C54.7435 41.1689 54.2357 40.914 53.5744 40.914C52.2045 40.914 51.1417 41.981 51.1417 43.457C51.1417 44.933 52.2045 46.0001 53.5744 46.0001C54.283 46.0001 54.7908 45.7452 55.0978 45.2887V45.8993H56.1607V43.457ZM52.2577 43.457C52.2577 42.5916 52.8127 41.8802 53.7279 41.8802C54.59 41.8802 55.1982 42.5441 55.1982 43.457C55.1982 44.3225 54.59 45.0338 53.7279 45.0338C52.8127 44.9805 52.2577 44.3166 52.2577 43.457ZM16.6758 43.457V41.0148H15.6129V41.6253C15.2587 41.1689 14.7509 40.914 14.0895 40.914C12.7196 40.914 11.6568 41.981 11.6568 43.457C11.6568 44.933 12.7196 46.0001 14.0895 46.0001C14.7981 46.0001 15.3059 45.7452 15.6129 45.2887V45.8993H16.6758V43.457ZM12.7255 43.457C12.7255 42.5916 13.2806 41.8802 14.1958 41.8802C15.0579 41.8802 15.6661 42.5441 15.6661 43.457C15.6661 44.3225 15.0579 45.0338 14.1958 45.0338C13.2806 44.9805 12.7255 44.3166 12.7255 43.457Z" fill="black"/>
<path d="M37.4605 3.91833H21.4941V32.7158H37.4605V3.91833Z" fill="#FF5A00"/>
<path d="M22.556 18.317C22.556 12.4662 25.2958 7.27345 29.5 3.9183C26.4059 1.47603 22.5029 0 18.2456 0C8.16033 0 0 8.19227 0 18.317C0 28.4418 8.16033 36.634 18.2456 36.634C22.5029 36.634 26.4059 35.158 29.5 32.7157C25.2899 29.408 22.556 24.1678 22.556 18.317Z" fill="#EB001B"/>
<path d="M59 18.317C59 28.4418 50.8397 36.634 40.7544 36.634C36.4971 36.634 32.5941 35.158 29.5 32.7157C33.7573 29.3546 36.444 24.1678 36.444 18.317C36.444 12.4662 33.7042 7.27345 29.5 3.9183C32.5882 1.47603 36.4912 0 40.7485 0C50.8397 0 59 8.24562 59 18.317Z" fill="#F79E1B"/>
</g>
<defs>
<clipPath id="clip0_8962_14775">
<rect width="59" height="46" fill="white"/>
</clipPath>
</defs>
</svg>
