<svg width="32" height="32" viewBox="0 0 32 32" fill="none" xmlns="http://www.w3.org/2000/svg">
<path d="M13.666 13.3734C13.666 14.0934 13.866 14.2 14.3193 14.36L14.9993 14.6V12.3334H14.5993C14.0927 12.3334 13.666 12.8 13.666 13.3734Z" fill="#A1A1A1"/>
<path d="M17 19.6667H17.4C17.92 19.6667 18.3333 19.2 18.3333 18.6267C18.3333 17.9067 18.1333 17.8 17.68 17.64L17 17.4V19.6667Z" fill="#A1A1A1"/>
<path d="M26.106 7.30663L23.3727 10.04C23.1727 10.24 22.9193 10.3333 22.666 10.3333C22.4127 10.3333 22.1593 10.24 21.9593 10.04C21.5727 9.65329 21.5727 9.01329 21.9593 8.62663L24.6927 5.89329C22.346 3.89329 19.3193 2.66663 15.9993 2.66663C8.63935 2.66663 2.66602 8.63996 2.66602 16C2.66602 23.36 8.63935 29.3333 15.9993 29.3333C23.3593 29.3333 29.3327 23.36 29.3327 16C29.3327 12.68 28.106 9.65329 26.106 7.30663ZM18.3327 15.76C19.186 16.0666 20.3327 16.68 20.3327 18.64C20.3327 20.3066 19.0127 21.68 17.3993 21.68H16.9993V22.0133C16.9993 22.56 16.546 23.0133 15.9993 23.0133C15.4527 23.0133 14.9993 22.56 14.9993 22.0133V21.68H14.8927C13.1193 21.68 11.666 20.1866 11.666 18.3466C11.666 17.7866 12.1193 17.3333 12.666 17.3333C13.2127 17.3333 13.666 17.7866 13.666 18.3333C13.666 19.0666 14.2127 19.6666 14.8927 19.6666H14.9993V16.7066L13.666 16.24C12.8127 15.9333 11.666 15.32 11.666 13.36C11.666 11.6933 12.986 10.32 14.5993 10.32H14.9993V9.99996C14.9993 9.45329 15.4527 8.99996 15.9993 8.99996C16.546 8.99996 16.9993 9.45329 16.9993 9.99996V10.3333H17.106C18.8793 10.3333 20.3327 11.8266 20.3327 13.6666C20.3327 14.2133 19.8793 14.6666 19.3327 14.6666C18.786 14.6666 18.3327 14.2133 18.3327 13.6666C18.3327 12.9333 17.786 12.3333 17.106 12.3333H16.9993V15.2933L18.3327 15.76Z" fill="#A1A1A1"/>
<path d="M30.2533 2.27996C30.1467 2.03996 29.96 1.83996 29.7067 1.73329C29.5867 1.69329 29.4667 1.66663 29.3333 1.66663H24C23.4533 1.66663 23 2.11996 23 2.66663C23 3.21329 23.4533 3.66663 24 3.66663H26.92L24.6933 5.89329C25.2 6.33329 25.6667 6.79996 26.1067 7.30663L28.3333 5.07996V7.99996C28.3333 8.54663 28.7867 8.99996 29.3333 8.99996C29.88 8.99996 30.3333 8.54663 30.3333 7.99996V2.66663C30.3333 2.53329 30.3067 2.41329 30.2533 2.27996Z" fill="#A1A1A1"/>
</svg>
