<svg width="32" height="32" viewBox="0 0 32 32" fill="none" xmlns="http://www.w3.org/2000/svg">
<path d="M6.66732 18.667C3.72065 18.667 1.33398 21.0537 1.33398 24.0003C1.33398 26.947 3.72065 29.3337 6.66732 29.3337C9.61398 29.3337 12.0006 26.947 12.0006 24.0003C12.0006 21.0537 9.61398 18.667 6.66732 18.667ZM8.00065 23.5737C8.00065 24.387 7.56065 25.1603 6.86732 25.5737L5.85398 26.187C5.69398 26.2937 5.50732 26.3337 5.33398 26.3337C5.00065 26.3337 4.66732 26.1603 4.48065 25.8537C4.20065 25.387 4.34732 24.7603 4.82732 24.4803L5.84065 23.867C5.93398 23.8137 6.00065 23.6937 6.00065 23.587V22.347C6.00065 21.787 6.45398 21.3337 7.00065 21.3337C7.54732 21.3337 8.00065 21.787 8.00065 22.3337V23.5737Z" fill="#A1A1A1"/>
<path d="M22.666 5.33301H9.33268C5.33268 5.33301 2.66602 7.33301 2.66602 11.9997V16.7463C2.66602 17.2397 3.17268 17.5463 3.61268 17.3463C4.91935 16.7463 6.42602 16.5197 8.01268 16.7997C11.5194 17.4263 14.0927 20.6797 13.9994 24.2397C13.986 24.7997 13.906 25.3463 13.7594 25.8797C13.6527 26.293 13.986 26.6797 14.4127 26.6797H22.666C26.666 26.6797 29.3327 24.6797 29.3327 20.013V11.9997C29.3327 7.33301 26.666 5.33301 22.666 5.33301ZM15.9994 19.333C14.1594 19.333 12.666 17.8397 12.666 15.9997C12.666 14.1597 14.1594 12.6663 15.9994 12.6663C17.8394 12.6663 19.3327 14.1597 19.3327 15.9997C19.3327 17.8397 17.8394 19.333 15.9994 19.333ZM25.666 18.6663C25.666 19.213 25.2127 19.6663 24.666 19.6663C24.1194 19.6663 23.666 19.213 23.666 18.6663V13.333C23.666 12.7863 24.1194 12.333 24.666 12.333C25.2127 12.333 25.666 12.7863 25.666 13.333V18.6663Z" fill="#A1A1A1"/>
</svg>
