<svg width="16" height="18" viewBox="0 0 16 18" fill="none" xmlns="http://www.w3.org/2000/svg">
<path d="M4.66667 7.33366H11.3333M4.66667 10.667H11.3333M4.66667 14.0003H8M4.66667 2.33366C4.66667 3.25413 5.41286 4.00033 6.33333 4.00033H9.66667C10.5871 4.00033 11.3333 3.25413 11.3333 2.33366M4.66667 2.33366C4.66667 1.41318 5.41286 0.666992 6.33333 0.666992H9.66667C10.5871 0.666992 11.3333 1.41318 11.3333 2.33366M4.66667 2.33366H3.83333C1.99238 2.33366 0.5 3.82604 0.5 5.66699V14.0003C0.5 15.8413 1.99238 17.3337 3.83333 17.3337H12.1667C14.0076 17.3337 15.5 15.8413 15.5 14.0003V5.66699C15.5 3.82604 14.0076 2.33366 12.1667 2.33366H11.3333" stroke="white" stroke-linecap="round"/>
</svg>
