<svg width="39" height="51" viewBox="0 0 39 51" fill="none" xmlns="http://www.w3.org/2000/svg">
<path d="M38.1257 3.62453V36.437C38.1257 40.1666 36.6441 43.7435 34.0069 46.3807C31.3696 49.018 27.7928 50.4995 24.0632 50.4995C20.3336 50.4995 16.7567 49.018 14.1195 46.3807C11.4822 43.7435 10.0007 40.1666 10.0007 36.437V11.1683L5.96004 15.2089C5.37066 15.7782 4.58127 16.0931 3.76191 16.086C2.94254 16.0789 2.15876 15.7502 1.57935 15.1708C0.999954 14.5914 0.671301 13.8077 0.664181 12.9883C0.657061 12.1689 0.972044 11.3795 1.54129 10.7902L10.9163 1.41516C11.2066 1.12414 11.5514 0.893243 11.9311 0.735703C12.3107 0.578162 12.7177 0.49707 13.1288 0.49707C13.5398 0.49707 13.9468 0.578162 14.3265 0.735703C14.7062 0.893243 15.051 1.12414 15.3413 1.41516L24.7163 10.7902C25.2855 11.3795 25.6005 12.1689 25.5934 12.9883C25.5863 13.8077 25.2576 14.5914 24.6782 15.1708C24.0988 15.7502 23.315 16.0789 22.4957 16.086C21.6763 16.0931 20.8869 15.7782 20.2975 15.2089L16.2507 11.1683V36.437C16.2507 38.509 17.0738 40.4962 18.5389 41.9613C20.004 43.4264 21.9912 44.2495 24.0632 44.2495C26.1352 44.2495 28.1223 43.4264 29.5874 41.9613C31.0526 40.4962 31.8757 38.509 31.8757 36.437V3.62453C31.8757 2.79573 32.2049 2.00087 32.791 1.41482C33.377 0.828772 34.1719 0.499531 35.0007 0.499531C35.8295 0.499531 36.6243 0.828772 37.2104 1.41482C37.7964 2.00087 38.1257 2.79573 38.1257 3.62453Z" fill="white"/>
</svg>
