<svg width="20" height="29" viewBox="0 0 20 29" fill="none" xmlns="http://www.w3.org/2000/svg">
<path d="M18.4531 16.84L15.5465 14.5066C15.1331 14.1866 14.6131 14 14.0798 14H10.9998V9.99996H16.9598C18.2531 9.99996 19.2931 8.95996 19.2931 7.66663V2.99996C19.2931 1.70663 18.2531 0.666626 16.9598 0.666626H5.94646C5.42646 0.666626 4.90646 0.853293 4.49312 1.17329L1.57313 3.50663C0.413125 4.43996 0.413125 6.22663 1.57313 7.15996L4.49312 9.49329C4.90646 9.81329 5.42646 9.99996 5.94646 9.99996H8.99979V14H3.06646C1.77313 14 0.733125 15.04 0.733125 16.3333V21C0.733125 22.2933 1.77313 23.3333 3.06646 23.3333H8.99979V26.3333H5.99979C5.45312 26.3333 4.99979 26.7866 4.99979 27.3333C4.99979 27.88 5.45312 28.3333 5.99979 28.3333H13.9998C14.5465 28.3333 14.9998 27.88 14.9998 27.3333C14.9998 26.7866 14.5465 26.3333 13.9998 26.3333H10.9998V23.3333H14.0798C14.6131 23.3333 15.1331 23.1466 15.5465 22.8266L18.4531 20.4933C19.6265 19.56 19.6265 17.7733 18.4531 16.84Z" fill="#A1A1A1"/>
</svg>
