<svg width="32" height="32" viewBox="0 0 32 32" fill="none" xmlns="http://www.w3.org/2000/svg">
<path d="M21.586 2.66699H10.4127C5.55935 2.66699 2.66602 5.56033 2.66602 10.4137V21.5737C2.66602 26.4403 5.55935 29.3337 10.4127 29.3337H21.5727C26.426 29.3337 29.3193 26.4403 29.3193 21.587V10.4137C29.3327 5.56033 26.4394 2.66699 21.586 2.66699ZM18.5593 22.1737H11.9993C11.4527 22.1737 10.9993 21.7203 10.9993 21.1737C10.9993 20.627 11.4527 20.1737 11.9993 20.1737H18.5593C20.266 20.1737 21.666 18.787 21.666 17.067C21.666 15.347 20.2794 13.9603 18.5593 13.9603H11.7993L12.146 14.307C12.5327 14.6937 12.5327 15.3337 12.146 15.7203C11.946 15.9203 11.6927 16.0137 11.4393 16.0137C11.186 16.0137 10.9327 15.9203 10.7327 15.7203L8.63935 13.627C8.25268 13.2403 8.25268 12.6003 8.63935 12.2137L10.7327 10.1203C11.1193 9.73366 11.7593 9.73366 12.146 10.1203C12.5327 10.507 12.5327 11.147 12.146 11.5337L11.6927 11.9737H18.5593C21.3727 11.9737 23.666 14.267 23.666 17.0803C23.666 19.8937 21.3727 22.1737 18.5593 22.1737Z" fill="#A1A1A1"/>
</svg>
