<svg width="20" height="20" viewBox="0 0 20 20" fill="none" xmlns="http://www.w3.org/2000/svg">
<ellipse cx="8.33333" cy="14.5837" rx="5.83333" ry="2.91667" stroke="white" stroke-linejoin="round"/>
<circle cx="8.33333" cy="5.83333" r="3.33333" stroke="white" stroke-linejoin="round"/>
<path d="M12.8506 3.68848C14.342 3.86234 15.5 5.12892 15.5 6.66699C15.5 8.32368 14.1566 9.66678 12.5 9.66699C12.2147 9.66699 11.9392 9.62419 11.6777 9.5498C11.9701 9.28645 12.2314 8.98921 12.4551 8.66406C12.4699 8.66439 12.4851 8.66699 12.5 8.66699C13.6044 8.66678 14.5 7.77139 14.5 6.66699C14.5 5.8194 13.972 5.09589 13.2275 4.80469C13.1458 4.41385 13.0178 4.03995 12.8506 3.68848Z" fill="white"/>
<path d="M13.3945 11.2012C14.4749 11.2791 15.4565 11.4942 16.2275 11.8154C16.7159 12.019 17.1446 12.2743 17.458 12.583C17.7731 12.8935 17.9999 13.2884 18 13.75C18 14.2116 17.7731 14.6065 17.458 14.917C17.1445 15.2258 16.716 15.481 16.2275 15.6846C16.0026 15.7783 15.7589 15.8613 15.501 15.9365C15.6886 15.5649 15.799 15.1729 15.8252 14.7676C15.8308 14.7653 15.8372 14.764 15.8428 14.7617C16.2588 14.5884 16.5634 14.3946 16.7559 14.2051C16.9464 14.0173 17 13.8634 17 13.75C16.9999 13.6366 16.9462 13.4835 16.7559 13.2959C16.5634 13.1063 16.2588 12.9117 15.8428 12.7383C15.5863 12.6314 15.2952 12.5388 14.9775 12.458C14.5711 11.9846 14.0343 11.5589 13.3945 11.2012Z" fill="white"/>
</svg>
