<svg width="80" height="26" viewBox="0 0 80 26" fill="none" xmlns="http://www.w3.org/2000/svg">
<path d="M34.4258 25.625H27.9902L32.0155 0.456299H38.4507L34.4258 25.625Z" fill="#00579F"/>
<path d="M57.7541 1.07165C56.4848 0.562401 54.4714 0.00012207 51.9819 0.00012207C45.6266 0.00012207 41.1513 3.42717 41.1238 8.32682C41.071 11.9418 44.328 13.9496 46.764 15.1549C49.2539 16.3866 50.1002 17.1905 50.1002 18.2884C50.0749 19.9745 48.0883 20.7517 46.2354 20.7517C43.6661 20.7517 42.2894 20.351 40.1972 19.4129L39.3498 19.0108L38.4492 24.6606C39.9586 25.356 42.7395 25.9731 45.6266 26.0001C52.3793 26.0001 56.7754 22.6261 56.8275 17.4048C56.8532 14.5396 55.1334 12.3443 51.4256 10.5503C49.1747 9.3987 47.7962 8.62219 47.7962 7.4439C47.8226 6.37272 48.9621 5.27557 51.503 5.27557C53.5951 5.22183 55.1323 5.73037 56.2968 6.23927L56.8789 6.50653L57.7541 1.07165Z" fill="#00579F"/>
<path d="M66.3084 16.7086C66.8384 15.2627 68.8778 9.66662 68.8778 9.66662C68.851 9.72036 69.4067 8.19402 69.7245 7.25701L70.1743 9.4257C70.1743 9.4257 71.393 15.4503 71.6576 16.7086C70.6518 16.7086 67.5796 16.7086 66.3084 16.7086ZM74.2523 0.456299H69.2744C67.7393 0.456299 66.5731 0.911103 65.9108 2.54456L56.3516 25.6246H63.1042C63.1042 25.6246 64.2159 22.5182 64.4549 21.8492C65.1957 21.8492 71.7646 21.8492 72.7176 21.8492C72.9023 22.7328 73.4855 25.6246 73.4855 25.6246H79.4442L74.2523 0.456299Z" fill="#00579F"/>
<path d="M22.6154 0.456299L16.3129 17.6189L15.6242 14.1382C14.4589 10.1218 10.8046 5.75808 6.72656 3.58833L12.4995 25.5983H19.3049L29.4205 0.456299H22.6154Z" fill="#00579F"/>
<path d="M10.4601 0.456299H0.105927L0 0.96484C8.07691 3.05345 13.4261 8.08797 15.6238 14.1392L13.373 2.57196C13.0024 0.964484 11.8636 0.509324 10.4601 0.456299Z" fill="#FAA61A"/>
</svg>
