<svg width="76" height="76" viewBox="0 0 76 76" fill="none" xmlns="http://www.w3.org/2000/svg">
<path d="M53.7125 0.5H22.2875C8.6375 0.5 0.5 8.6375 0.5 22.2875V53.675C0.5 67.3625 8.6375 75.5 22.2875 75.5H53.675C67.325 75.5 75.4625 67.3625 75.4625 53.7125V22.2875C75.5 8.6375 67.3625 0.5 53.7125 0.5ZM18.3125 46.025C18.3125 47.5625 17.0375 48.8375 15.5 48.8375C13.9625 48.8375 12.6875 47.5625 12.6875 46.025V29.975C12.6875 28.4375 13.9625 27.1625 15.5 27.1625C17.0375 27.1625 18.3125 28.4375 18.3125 29.975V46.025ZM29.5625 51.3875C29.5625 52.925 28.2875 54.2 26.75 54.2C25.2125 54.2 23.9375 52.925 23.9375 51.3875V24.6125C23.9375 23.075 25.2125 21.8 26.75 21.8C28.2875 21.8 29.5625 23.075 29.5625 24.6125V51.3875ZM40.8125 56.75C40.8125 58.2875 39.5375 59.5625 38 59.5625C36.4625 59.5625 35.1875 58.2875 35.1875 56.75V19.25C35.1875 17.7125 36.4625 16.4375 38 16.4375C39.5375 16.4375 40.8125 17.7125 40.8125 19.25V56.75ZM52.0625 51.3875C52.0625 52.925 50.7875 54.2 49.25 54.2C47.7125 54.2 46.4375 52.925 46.4375 51.3875V24.6125C46.4375 23.075 47.7125 21.8 49.25 21.8C50.7875 21.8 52.0625 23.075 52.0625 24.6125V51.3875ZM63.3125 46.025C63.3125 47.5625 62.0375 48.8375 60.5 48.8375C58.9625 48.8375 57.6875 47.5625 57.6875 46.025V29.975C57.6875 28.4375 58.9625 27.1625 60.5 27.1625C62.0375 27.1625 63.3125 28.4375 63.3125 29.975V46.025Z" fill="white"/>
</svg>
